<?xml version="1.0" standalone="no"?>
<!DOCTYPE svg PUBLIC "-//W3C//DTD SVG 20010904//EN"
 "http://www.w3.org/TR/2001/REC-SVG-20010904/DTD/svg10.dtd">
<svg version="1.0" xmlns="http://www.w3.org/2000/svg"
 width="430.000000pt" height="430.000000pt" viewBox="0 0 430.000000 430.000000"
 preserveAspectRatio="xMidYMid meet">
<metadata>
Created by potrace 1.11, written by Peter Selinger 2001-2013
</metadata>
<g transform="translate(0.000000,430.000000) scale(0.100000,-0.100000)"
fill="#000000" stroke="none">
<path d="M162 4269 c-69 -34 -104 -71 -138 -144 l-24 -50 0 -1926 0 -1926 31
-61 c34 -69 71 -104 144 -138 l50 -24 1926 0 1926 0 61 31 c69 34 104 71 138
144 l24 50 0 1925 0 1925 -24 50 c-34 73 -69 110 -138 144 l-61 31 -1927 0
-1927 0 -61 -31z m2437 -931 c104 -25 155 -46 229 -96 97 -66 180 -171 230
-288 48 -115 52 -179 52 -885 l0 -659 165 0 165 0 0 -240 0 -240 -425 0 -425
0 -2 908 -3 907 -23 42 c-35 67 -85 88 -202 87 -79 -1 -111 -6 -193 -34 -106
-36 -265 -124 -364 -202 l-63 -50 0 -589 0 -589 165 0 165 0 0 -240 0 -240
-420 0 -420 0 0 965 0 965 -185 0 -185 0 0 235 0 235 435 0 435 0 0 -80 0 -80
80 40 c180 90 333 137 495 149 118 9 191 4 294 -21z"/>
</g>
</svg>
