<?xml version="1.0" encoding="UTF-8"?>
<svg width="16px" height="12px" viewBox="0 0 16 12" version="1.1" xmlns="http://www.w3.org/2000/svg" xmlns:xlink="http://www.w3.org/1999/xlink">
    <!-- Generator: Sketch 50.2 (55047) - http://www.bohemiancoding.com/sketch -->
    <title>Fill 1 Copy</title>
    <desc>Created with Sketch.</desc>
    <defs></defs>
    <g id="Uitgebreid" stroke="none" stroke-width="1" fill="none" fill-rule="evenodd">
        <g id="Instellingen" transform="translate(-328.000000, -629.000000)" fill="#FFFFFF">
            <path d="M328.18,635.6 C328.06,635.48 328,635.3 328,635.18 C328,635.06 328.06,634.88 328.18,634.76 L329.02,633.92 C329.26,633.68 329.62,633.68 329.86,633.92 L329.92,633.98 L333.22,637.52 C333.34,637.64 333.52,637.64 333.64,637.52 L341.68,629.18 L341.7406,629.18 C341.98,628.94 342.3406,628.94 342.58,629.18 L343.42,630.02 C343.66,630.26 343.66,630.62 343.42,630.86 L333.82,640.82 C333.7,640.94 333.58,641 333.4,641 C333.22,641 333.1,640.94 332.98,640.82 L328.3,635.78 L328.18,635.6 Z" id="Fill-1-Copy"></path>
        </g>
    </g>
</svg>