<?xml version="1.0" encoding="UTF-8"?>
<svg width="172px" height="69px" viewBox="0 0 172 69" version="1.1" xmlns="http://www.w3.org/2000/svg" xmlns:xlink="http://www.w3.org/1999/xlink">
    <title>Group</title>
    <defs>
        <polygon id="path-1" points="0.0363380282 0.4434 171.912789 0.4434 171.912789 47.6118 0.0363380282 47.6118"></polygon>
        <polygon id="path-3" points="0.2 0.0360555556 24.9244048 0.0360555556 24.9244048 21.9633333 0.2 21.9633333"></polygon>
    </defs>
    <g id="Page-1" stroke="none" stroke-width="1" fill="none" fill-rule="evenodd">
        <g id="Desktop-Spril" transform="translate(-80.000000, -29.000000)">
            <g id="Group" transform="translate(80.000000, 29.000000)">
                <path d="M87.897546,29.8227186 C87.897546,33.9440352 101,31.7915875 101,40.5825808 C101,45.5736692 96.5089658,48 91.2315802,48 C87.4812423,48 83.5915358,46.8094106 81,44.5666587 L83.0827201,40.399596 C85.3516655,42.3227186 88.7776109,43.4212215 91.4634608,43.4212215 C93.5455802,43.4212215 95.1194846,42.7350285 95.1194846,41.1315352 C95.1194846,36.5985029 82.2026552,39.0717681 82.2489112,30.371673 C82.2489112,25.3354325 86.6011774,23 91.601628,23 C94.8425495,23 98.2222389,23.9618584 100.675607,25.6105038 L98.499174,29.914211 C96.0926621,28.4948907 93.361157,27.6702709 91.2315802,27.6702709 C89.2864266,27.6702709 87.897546,28.3119059 87.897546,29.8227186 Z" id="Fill-1" fill="#FFFFFF"></path>
                <path d="M124.904171,35.5243836 C124.904171,31.1646222 122.041115,28.0566973 117.976031,28.0566973 C113.867204,28.0566973 111.004148,31.1646222 111.004148,35.5243836 C111.004148,39.9774308 113.867204,43.0384118 117.976031,43.0384118 C122.041115,43.0384118 124.904171,39.9310888 124.904171,35.5243836 Z M131,35.7097517 C131,43.1774379 126.427979,48.2329315 119.408159,48.2329315 C115.66785,48.2329315 112.804794,46.702441 111.004148,43.9652523 L111.004148,57 L105,57 L105,23.1853681 L111.004148,23.1853681 L111.004148,27.2676792 C112.758055,24.5310923 115.62171,23 119.315879,23 C126.28956,23 131,28.1030393 131,35.7097517 L131,35.7097517 Z" id="Fill-2" fill="#FFFFFF"></path>
                <path d="M150,23 L150,28.8332733 C144.567686,28.5095029 141.250156,31.5651986 141.250156,36.0553353 L141.250156,48 L135,48 L135,23.2312646 L141.250156,23.2312646 L141.250156,28.0007208 C142.980661,24.7594128 146.009357,23.0462529 150,23" id="Fill-3" fill="#FFFFFF"></path>
                <polygon id="Fill-4" fill="#FFFFFF" points="153 48 159 48 159 23 153 23"></polygon>
                <g id="Group-9">
                    <mask id="mask-2" fill="white">
                        <use xlink:href="#path-1"></use>
                    </mask>
                    <g id="Clip-6"></g>
                    <polygon id="Fill-5" fill="#FFFFFF" mask="url(#mask-2)" points="165.845549 47.6118 171.912789 47.6118 171.912789 13.3002 165.845549 13.3002"></polygon>
                    <path d="M59.1655775,24.72 C59.1655775,14.1864 52.8397324,6.4374 49.0097042,4.65 C42.6008873,1.6614 40.4981268,2.6964 41.1346479,0.4434 C41.1346479,0.4434 35.7850845,3.2346 35.7850845,10.992 C35.7850845,28.7544 50.7018451,29.3298 53.240662,39.9168 C53.240662,39.9168 59.1655775,35.2512 59.1655775,24.72" id="Fill-7" fill="#ECBF31" mask="url(#mask-2)"></path>
                    <path d="M15.842169,43.6362 C4.40114085,28.7232 7.38388732,14.997 7.71940845,13.6278 C3.14808451,19.1346 0.307661972,26.0994 0,33.711 C5.08369014,41.0904 15.842169,43.6362 15.842169,43.6362" id="Fill-8" fill="#B7D473" mask="url(#mask-2)"></path>
                </g>
                <path d="M24,52.4252166 C6.71800911,52.8614072 0.0110604742,40 0.0110604742,40 L0,40.1435328 C0.605253725,44.7098636 2.08428491,48.9940997 4.25828255,52.8272327 C13.8280506,55.6829759 24,52.4252166 24,52.4252166" id="Fill-10" fill="#91CAA0"></path>
                <g id="Group-14" transform="translate(9.000000, 47.000000)">
                    <mask id="mask-4" fill="white">
                        <use xlink:href="#path-3"></use>
                    </mask>
                    <g id="Clip-12"></g>
                    <path d="M15.6089286,11.9887778 C10.239881,13.8716111 3.93809524,12.3407778 0.2,11.0501111 C2.16666667,13.3014444 4.41845238,15.2796111 6.89642857,16.9345 C12.1761905,15.6493333 15.6089286,11.9887778 15.6089286,11.9887778" id="Fill-11" fill="#73B5B9" mask="url(#mask-4)"></path>
                    <path d="M12.125,19.8 C14.4583333,20.8113889 16.9232143,21.5502222 19.4845238,22 C21.335119,20.1232778 24.8755952,14.6257222 24.9244048,0.0360555556 C24.8803571,2.22016667 24.1190476,16.2219444 12.125,19.8" id="Fill-13" fill="#9ED4CE" mask="url(#mask-4)"></path>
                </g>
                <path d="M52,64 C53.7789591,62.9445422 55.4509828,61.7375377 57,60.4022553 C56.7379157,57.3528236 55.9053035,49.9359804 53.708493,44 C53.708493,44 56.4919026,56.4912741 52,64" id="Fill-15" fill="#9ED4CE"></path>
                <path d="M64.0363355,40 C64.0363355,40 66.3591032,36.4267232 68,32.0334409 C67.452068,25.7099731 65.3073058,19.8812193 62,15 C63.480286,19.3131916 67.2723232,31.9379482 64.0363355,40" id="Fill-16" fill="#B7D473"></path>
                <path d="M67.9717514,37 C67.9717514,37 65.4118016,45.2644128 59,47.7831263 C59,47.7831263 62.4607659,48.720709 66.1927181,46.696985 C67.1914626,43.8010194 67.8166981,40.7373861 68,37.5553991 L67.9717514,37" id="Fill-17" fill="#91CAA0"></path>
                <path d="M58,52.6557723 C59.2448424,54.0885609 60.741339,54.7206115 61.9079408,55 C62.666991,54.039009 63.3705722,53.0405904 64,52 C61.6866485,53.2393253 58,52.6557723 58,52.6557723" id="Fill-18" fill="#73B5B9"></path>
                <path d="M28.8707339,20.7246579 C26.9500941,22.8563507 24.8352324,22.5676651 24.8352324,22.5676651 C26.7648639,21.5111603 27.4967931,19.3294448 27.7749382,17.8444319 C25.9741885,18.9684372 24.3436829,18.4935224 24.3436829,18.4935224 C26.3272649,17.6075771 27.2456233,15.6988774 27.6706338,14.1650471 C25.318989,15.404165 22.9463635,14.4290226 22.9463635,14.4290226 C26.1821979,14.7454316 28.0051272,9.77268727 28.4373311,8.42809964 C29.3760708,4.24426845 32.0825903,1.36223435 36,1.06631659 C35.545017,1.03497703 35.0876362,1.01267772 34.6296559,1.00062405 C33.1430184,0.992186475 30.7242352,1.06511122 27.9128118,1.47794965 C22.0160162,2.49708801 16.641342,5.0440299 12.2126009,8.71136104 C11.257676,9.73652624 10.4016606,10.8930765 9.69430884,12.2087353 C4.14639344,22.5242719 33.6687366,36.3142807 33.6687366,42 C33.6687366,42 33.6723333,33.8402636 29.5888757,22.8937171 C29.317924,22.167483 29.0799421,21.4436597 28.8707339,20.7246579" id="Fill-19" fill="#ECBF31"></path>
                <polyline id="Fill-20" fill="#ECBF31" points="153 20 159 15 159 20 153 20"></polyline>
            </g>
        </g>
    </g>
</svg>