<?xml version="1.0" encoding="UTF-8"?>
<svg width="300px" height="115px" viewBox="0 0 300 115" version="1.1" xmlns="http://www.w3.org/2000/svg" xmlns:xlink="http://www.w3.org/1999/xlink">
    <title>Group 3</title>
    <g id="Page-1" stroke="none" stroke-width="1" fill="none" fill-rule="evenodd">
        <g id="Desktop-Spril" transform="translate(-639.000000, -110.000000)">
            <g id="Group-3" transform="translate(639.000000, 110.000000)">
                <polygon id="Rectangle" fill="#FDC600" points="3.79904441e-13 0 300 -3.1918912e-14 300 79.3730242 277.926497 79.3730242 277.490756 115 245.97355 79.3730242 -3.12250226e-14 79.3730242"></polygon>
                <path d="M43.234,57 L43.234,26.2 L34.654,26.2 L34.654,57 L43.234,57 Z M56.742,57 L56.742,51.412 L58.898,48.904 L63.694,57 L72.89,57 L64.398,42.744 L72.67,33.196 L63.21,33.196 L56.742,41.16 L56.742,24.88 L48.382,24.88 L48.382,57 L56.742,57 Z M99.818,57.176 L103.778,44.812 L107.65,57.176 L114.866,57.176 L122.214,33.196 L114.162,33.196 L110.95,45.252 L107.254,33.108 L100.346,33.108 L96.694,45.164 L93.57,33.196 L85.386,33.196 L92.646,57.176 L99.818,57.176 Z M133.698,31.04 L133.698,24.88 L124.986,24.88 L124.986,31.04 L133.698,31.04 Z M133.522,57 L133.522,33.196 L125.162,33.196 L125.162,57 L133.522,57 Z M146.722,57 L146.722,24.88 L138.362,24.88 L138.362,57 L146.722,57 Z M176.158,57.528 C179.942,57.528 182.963333,56.6333333 185.222,54.844 C187.480667,53.0546667 188.61,50.6053333 188.61,47.496 C188.61,44.7386667 187.664,42.6486667 185.772,41.226 C183.88,39.8033333 180.998,38.6666667 177.126,37.816 C175.014,37.3466667 173.598667,36.9066667 172.88,36.496 C172.161333,36.0853333 171.802,35.528 171.802,34.824 C171.802,34.208 172.066,33.7093333 172.594,33.328 C173.122,32.9466667 173.884667,32.756 174.882,32.756 C177.756667,32.756 180.631333,33.768 183.506,35.792 L183.506,35.792 L187.774,29.764 C184.371333,27.036 180.147333,25.672 175.102,25.672 C171.464667,25.672 168.568,26.5886667 166.412,28.422 C164.256,30.2553333 163.178,32.624 163.178,35.528 C163.178,37.0826667 163.456667,38.4173333 164.014,39.532 C164.571333,40.6466667 165.429333,41.5633333 166.588,42.282 C167.746667,43.0006667 168.934667,43.5726667 170.152,43.998 C171.369333,44.4233333 172.916667,44.856 174.794,45.296 C176.847333,45.7653333 178.226,46.2126667 178.93,46.638 C179.634,47.0633333 179.986,47.5986667 179.986,48.244 C179.986,49.7106667 178.812667,50.444 176.466,50.444 C172.887333,50.444 169.558,49.212 166.478,46.748 L166.478,46.748 L161.726,52.424 C165.539333,55.8266667 170.35,57.528 176.158,57.528 Z M200.622,64.04 L200.622,54.096 C202.587333,56.384 205.007333,57.528 207.882,57.528 C210.815333,57.528 213.301333,56.3913333 215.34,54.118 C217.378667,51.8446667 218.398,48.8306667 218.398,45.076 C218.398,41.3506667 217.371333,38.3513333 215.318,36.078 C213.264667,33.8046667 210.771333,32.668 207.838,32.668 C205.051333,32.668 202.646,33.9 200.622,36.364 L200.622,36.364 L200.622,33.196 L192.262,33.196 L192.262,64.04 L200.622,64.04 Z M205.286,50.532 C203.936667,50.532 202.792667,50.0186667 201.854,48.992 C200.915333,47.9653333 200.446,46.6746667 200.446,45.12 C200.446,43.536 200.915333,42.2306667 201.854,41.204 C202.792667,40.1773333 203.936667,39.664 205.286,39.664 C206.664667,39.664 207.823333,40.17 208.762,41.182 C209.700667,42.194 210.17,43.4773333 210.17,45.032 C210.17,46.6453333 209.700667,47.9653333 208.762,48.992 C207.823333,50.0186667 206.664667,50.532 205.286,50.532 Z M230.366,57 L230.366,49.608 C230.366,44.2693333 232.639333,41.6 237.186,41.6 L237.186,41.6 L237.89,41.6 L237.89,32.8 C234.399333,32.6533333 231.891333,34.384 230.366,37.992 L230.366,37.992 L230.366,33.196 L222.006,33.196 L222.006,57 L230.366,57 Z M249.55,31.04 L249.55,24.88 L240.838,24.88 L240.838,31.04 L249.55,31.04 Z M249.374,57 L249.374,33.196 L241.014,33.196 L241.014,57 L249.374,57 Z M262.574,57 L262.574,24.88 L254.214,24.88 L254.214,57 L262.574,57 Z M274.322,46.968 L276.874,29.94 L276.874,26.2 L267.37,26.2 L267.37,29.94 L269.922,46.968 L274.322,46.968 Z M276.478,57 L276.478,49.52 L267.766,49.52 L267.766,57 L276.478,57 Z" id="IkwilSpril!" fill="#000000" fill-rule="nonzero"></path>
            </g>
        </g>
    </g>
</svg>