<svg version="1" xmlns="http://www.w3.org/2000/svg" width="453.333" height="453.333" viewBox="0 0 340.000000 340.000000"><path d="M146.9 4.2c-.1 1.8-.1 6.6-.1 10.6 0 7 0 7.2-2.6 7.8-6.7 1.4-18.1 4.4-20.5 5.3-2.4.9-2.7.7-6.6-6.7-6.3-12.2-5-11.8-17.1-5.3-5.8 3.1-14.5 7.8-19.5 10.5-4.9 2.6-9.3 5-9.8 5.3-.4.2 1.5 4.7 4.3 9.9l5.1 9.4-10.6 10.5L58.8 72l-8.1-5.3c-4.5-2.9-8.9-5.6-9.7-5.9-1.1-.4-4.9 4.7-13.9 19-10.9 17-12.3 19.6-10.8 20.6.9.6 5.4 3.5 10.1 6.5 4.7 2.9 8.6 5.9 8.6 6.6 0 .8-.5 2.6-1.1 4.2-.7 1.5-2.4 7.7-3.9 13.8l-2.6 11-13.1-.3-13-.4-.2 9.4c-.1 5.1-.4 15.6-.7 23.3l-.5 14 12.8.3c7 .1 13.5.5 14.4.7.9.3 2 2.8 2.7 6.5.7 3.3 2.4 9.4 3.8 13.6 1.4 4.2 2.4 7.7 2.2 7.9-.1.1-5.8 3.3-12.5 7-6.8 3.7-12.3 7.1-12.3 7.5 0 .6 2.4 5.1 14.1 26.7 6.3 11.6 7.4 13.3 8.1 13.3.4 0 6.4-3.2 13.4-7 7-3.9 13-6.9 13.4-6.8.4.2 5.1 4.4 10.4 9.5l9.6 9.1-8 13.6c-4.4 7.4-8 13.7-8 13.9 0 .6 37.2 22.5 38.9 22.9.8.2 4.5-4.9 9.5-13.2 6.3-10.5 8.5-13.5 10.1-13.4 1.1.1 7 1.5 13 3.1l11 2.9.2 15.9c.1 8.8.2 16.4.2 16.8.1.4 6.8.7 15.1.6 12.3-.2 14.8-.5 13.9-1.6-.6-.7-2.2-1.3-3.5-1.3-1.7 0-2.3-.6-2.6-2.8-.5-4.5.3-12.2 1.3-11.6 1.2.7 1.1 7.1-.1 7.9-1.8 1.1-.1 2.2 2.5 1.7 1.9-.3 2.3-.8 1.6-1.5-.6-.6-1.1-3.5-1.1-6.4 0-5.3-.6-6.3-2.7-4.2-.8.8-1.2 0-1.5-2.5-.4-3.3-.2-3.6 2.3-3.6 3.4 0 5.3-2.3 5.3-6.5 0-4.1-2.7-7.5-5.5-6.8-1.5.4-1.9 0-1.9-2.1s.5-2.6 2.3-2.6c2.8 0 5.2-3.9 4.9-7.8-.3-3.3-3.1-6.4-5.4-5.9-1.4.4-1.8-.1-1.8-2.3 0-2.5.3-2.8 2.5-2.4 2.4.4 3.3-.5 1.8-2-.5-.4-.8-2.4-.9-4.4-.2-7.3-.3-7.7-1.6-6.4-2 2-2.4 1.4-2-2.3.3-2.8.8-3.4 2.1-3 2.6.8 5.4-2.9 5.4-7s-1.8-6.5-4.9-6.5c-1.9 0-2.4-.5-2.4-2.5s.5-2.5 2.5-2.5c1.4 0 2.5-.5 2.5-1 0-.6-.4-1-1-1-.5 0-.8-1.9-.6-4.4.3-4.8-.5-7.2-2.3-6.2-.7.5-1.1-.4-1.1-2.3 0-2.6.4-3.1 2.3-3.1 3.2 0 5.7-3 5.7-6.8 0-3.9-3.3-7.6-6.1-6.9-1.5.4-1.9 0-1.9-2.3 0-2.4.3-2.7 2.6-2.2 2.4.4 2.6.3 1.9-1.9-.5-1.3-.7-3.7-.7-5.4.2-4.7-.7-6.8-2.3-5.5-1 .8-1.4.8-1.7-.2-.8-2.2.4-5.7 1.6-5.2.7.3 2.3-.4 3.6-1.4 1.8-1.5 2.4-2.9 2.3-5.6-.1-4.4-1.7-6.6-4.9-6.6-1.5 0-2.4-.6-2.4-1.5v-2.3c0-.4 1-.7 2.2-.7 1.2 0 2.3-.6 2.6-1.3.2-.6-.1-1.2-.7-1.2-.7 0-1.1-2.2-1.1-5.6 0-4.4-.3-5.5-1.4-5.1-.9.4-1.6-.3-1.9-1.8-.5-2.9-.1-3.5 2.8-3.5 2.7 0 4.3-1.7 5.1-5.6.7-3.7-2.9-8.8-5.6-7.9-1.2.4-1.9-.1-2.3-1.4-.6-2.5 0-3.1 3-3.1 1.3 0 2.3-.5 2.3-1 0-.6-.4-1-.9-1s-.9-2.5-1-5.6c0-5.5-.9-8.2-1.8-5.6-.9 2.3-2 .3-1.5-2.7.3-1.9.9-2.8 1.7-2.5 2 .8 5.5-3.2 5.5-6.4 0-3.5-2.6-7.2-5.1-7.2-2.9 0-2.6-4.5.3-4.7 3-.3 4.8-2.9 4.8-7 0-3.8-3.1-7.6-5.5-6.7-1.1.5-1.5-.1-1.5-2 0-2.1.5-2.6 2.5-2.6 1.4 0 2.5-.5 2.5-1 0-.6-.4-1-1-1s-1-2.7-1-6.1c0-5.2-.2-6-1.4-5-1.1.9-1.5.9-1.8-.1-.8-2.3.4-4.8 2.2-4.8.9 0 2.4-.8 3.3-1.8 3.5-3.9 1-12.2-3.7-12.2-1.9 0-2.2-.4-1.8-2.5.2-1.4.8-2.2 1.3-1.9 3.2 1.9 7.4-3.7 6.3-8.4-.9-3.8-2.3-5.2-5-5.2-1.9 0-2.4-.5-2.4-2.6s.4-2.5 1.9-2.1c2.8.7 5.5-2.7 5.4-6.9-.1-4.2-1.8-6.4-4.8-6.4-1.4 0-2.5-.7-2.8-1.9-.6-2.5 0-3.1 3-3.1 2.5 0 3.1-1.5 1-2.3-.7-.3-7-.6-14-.6L147 .9l-.1 3.3zm27.9 8.5c1.8 3.4-.6 8.7-3.4 7.6-.9-.3-1.4-2-1.4-4.9 0-3.7.3-4.4 2-4.4 1 0 2.3.8 2.8 1.7zm.1 18.2c2 3.6-.3 8.9-3.3 7.8-1.6-.6-2.3-7.6-.9-9 1.2-1.3 3.2-.7 4.2 1.2zm-1.1 17.3c2.5 2.5 1.1 8.8-1.9 8.8-1.6 0-1.9-.7-1.9-4.3 0-5.6 1.2-7.1 3.8-4.5zm-2.8 23c0 2.6-.4 3.8-.8 3-.8-1.2-.4-7.2.4-7.2.2 0 .4 1.9.4 4.2zm2.9 13.2c.7.8 1.1 3 .9 4.8-.2 2.5-.8 3.4-2.5 3.6-2.4.4-2.7-.2-2.3-5.3.3-4.8 1.7-5.8 3.9-3.1zm.5 19.2c1.1 2.8.6 6.1-1 7.5-1.4 1.1-1.8 1.1-2.8-.3-1.8-2.5-.8-8.8 1.4-8.8 1 0 2.1.7 2.4 1.6zm-3.1 22.8c.2 2 0 3.6-.4 3.6-.8 0-1.7-6.8-1-7.5.8-.8 1.2.1 1.4 3.9zm3.8 14.3c1.3 3.5-.3 7.6-2.9 7.1-2.2-.4-3-7.7-1-8.9 2.1-1.4 2.8-1.1 3.9 1.8zm-3.9 21.3c.2 2.2 0 4-.4 4-.5 0-.8-1.8-.8-4s.2-4 .4-4 .6 1.8.8 4zm3.2 13.8c1.5 2.5 1.3 6.2-.4 7.7-2.7 2.4-4 1.1-4-4.1 0-3.7.3-4.4 1.9-4.4 1.1 0 2.2.4 2.5.8zm-2.6 23.2c0 2.2-.3 4-.8 4-.4 0-1-1.8-1.2-4-.2-2.6.1-4 .8-4 .7 0 1.2 1.7 1.2 4zm3 13.2c1.4 1.4 1.6 5.7.3 7.6-1.3 2.1-4.6 1-4.9-1.7-.8-5.5 1.7-8.8 4.6-5.9zm-3.3 22.5c-.1 2-.8 3.9-1.5 4.1-.9.3-1.1-.1-.7-1.2.4-1 .7-2.9.7-4.2 0-1.3.4-2.4.8-2.4s.7 1.7.7 3.7zm3.6 15.6c.6 5.2-.9 8.1-3.8 7-1.3-.5-1.9-8.4-.7-9.6.9-.9 4.4 1.1 4.5 2.6zm-3.6 21.1c0 1.9-.3 3.8-.8 4.2-.4.4-.7-1.1-.7-3.4s.4-4.2.8-4.2.8 1.5.7 3.4zm2.8 14.7c2 2.8.8 7.3-2.1 7.7-2 .3-2.2-.1-2.2-4.1 0-6.1 1.6-7.5 4.3-3.6zm1.1 18.7c1.2 3.9-1 7.9-3.8 6.9-2-.8-2.2-8.3-.3-9 1.8-.6 3.6.3 4.1 2.1zM180.7 2.7c.5 1.4 3.1 1.7 5.7.7 2.8-1.1 1.7-1.9-2.3-1.9-2.7 0-3.7.3-3.4 1.2zM182 10.5c-.9 1-.9 1.5-.1 1.5 1.4 0 1.5 7.6.1 8.5-1.5.9-.3 2.4 1.8 2 .9-.2 2.1-.4 2.7-.4.5-.1.4-.6-.3-1.3-.7-.7-1.2-3.6-1.2-6.5 0-5.4-.8-6.4-3-3.8zM191.7 11.7c-1 .9-.9 8.1.1 8.7.4.2.8-1.8.8-4.5s-.1-4.9-.1-4.9c-.1 0-.5.3-.8.7zM238 17c0 1.8 3.5 6 5 6 1.4 0 4.4-2.9 3.8-3.6-.4-.4-1.5-.1-2.4.7-1.4 1.1-1.8 1.1-3-.6-.8-1-1.4-2.5-1.4-3.2 0-.7-.4-1.3-1-1.3-.5 0-1 .9-1 2zM231.2 20.2c-1.7 1.7-1.5 2.4.8 2.4 2.2 0 2.4-.4 1.2-2.3-.6-1-1.1-1-2-.1zM182.7 28.4c-2 1.6-2.2 2.6-.4 2.6 1.8 0 1.4 6.9-.4 8.1-.8.5-1.2.9-.9 1 5.3.9 6.1.7 5.4-.9-.4-.9-.8-3.9-1-6.5-.2-5.7-.4-5.9-2.7-4.3zM228.3 28.2c-2.9 3.7-1.8 11.2 1.7 12.3 5 1.6 8.8-6.1 5.5-11.1-1.7-2.6-5.6-3.2-7.2-1.2zm6.1 3c1.4 2.2-.3 7.2-2.7 7.6-2.3.5-4-4-2.7-7.4 1.1-2.8 3.6-2.9 5.4-.2zM241.6 28.6c-1.7 1.2-1.7 1.4-.3 1.9 2 .8 1.7 7.2-.3 8.5-1.7 1.1-1.6 1.1 2.3 1.4 2.2.2 2.7 0 2.1-1.3-.4-.9-.7-3.7-.9-6.3-.2-5.7-.4-6.1-2.9-4.2zM253.3 28.4c-.8.9-.8 1.7-.1 2.4 1.7 1.7 1.6 7.2-.1 8.2-.9.5-1.4 1-1.1 1 4.8 1.1 6.5.6 5.3-1.3-.5-.7-.9-2.8-.9-4.7-.3-7.7-.6-8.3-3.1-5.6zM191.6 30.6c-1.7 4.3.4 9.5 4 10 2.2.3 5.6-2.4 4.8-3.8-.3-.5-1.5-.1-2.5.8-1.8 1.6-2.1 1.6-3.6.1-.9-.9-1.6-3.2-1.6-5.2 0-3.9-.2-4.2-1.1-1.9zM262.4 31.4c-.9 3.9.3 7.5 3.1 8.8 2.1.9 2.8.8 4.5-.7 1.1-1 2-2.8 2-3.9 0-1.9-.3-1.8-2.4.9-2.1 2.6-2.6 2.8-4 1.5-1.1-.9-1.6-2.5-1.4-4.6.3-4.1-.9-5.5-1.8-2zM223.7 32.7c-.4.3-.7 1.3-.7 2.2 0 .8-1 2.5-2.2 3.8-1.2 1.3-1.6 2.3-1 2.3 2.1 0 5.2-3.9 5.2-6.5s-.2-2.9-1.3-1.8zM205.9 39.1c-.8.5-1.2.9-.9 1 .3 0 1.5.2 2.7.5 1.2.2 2.4 0 2.7-.5.8-1.2-2.9-2-4.5-1z"/><path d="M180.7 46.8c-3.6 3.9-2.3 10.7 2.1 11.9 5.2 1.3 8.4-7.5 4.2-11.7-2.5-2.5-4.2-2.5-6.3-.2zm5.2 1.6c2.8 3.4-1.1 10.8-4 7.9-1.6-1.6-1.4-7.4.3-8.4 1.8-1.2 2.4-1.1 3.7.5zM204.6 46.6c-2.4 2.3-2.9 5.9-1.4 9.1 1.8 3.7 5.9 4.3 8 1.1 4-6.1-1.8-15.1-6.6-10.2zm5.5 2.7c1.9 4.2-2.3 10.4-4.6 6.7-1.5-2.4-1.4-5.9.1-7.4 2.1-2.2 3.3-2 4.5.7zM217.3 46.9c-.9 1.5-.9 2.1-.1 2.3 1.8.6 1.9 7.8.1 7.8-.8 0-1.1.4-.8 1 .3.5 1.7 1 3.1 1 1.3 0 2.4-.5 2.4-1 0-.6-.4-1-1-1-.5 0-.8-2.1-.6-4.8.5-7-.7-9.1-3.1-5.3zM227.6 47.2c-2.1 3-2 7.1.2 9.8 4.6 5.7 11-2.5 7.1-8.9-2.2-3.7-5.2-4-7.3-.9zm6 2.3c.8 3.2-.3 7.5-1.9 7.5-2.1 0-3.7-2.2-3.7-5 0-4.9 4.5-6.9 5.6-2.5zM239.6 46.9c-3.6 3.9-1.2 12.1 3.5 12.1 2.3 0 4.9-3.7 4.9-7s-2.6-7-4.9-7c-1 0-2.6.9-3.5 1.9zm5.2 1.3c2.6 2.6.8 8.8-2.5 8.8-1.4 0-2.9-4.5-2.4-7 .6-2.8 3-3.7 4.9-1.8zM252.9 46.7c-1.1 1.3-1.1 1.7-.1 2 1.4.5 1.7 8.3.2 8.3-.5 0-1 .4-1 1 0 .5 1.1 1 2.4 1 1.4 0 2.8-.5 3.1-1 .3-.6.1-1-.4-1-.7 0-1.1-2.3-1.1-5.4 0-6-1-7.5-3.1-4.9zM264.9 46.7c-1.1 1.3-1.1 1.7-.1 2 .6.3 1.2 1.2 1.2 2 0 2.8 1.4.4 1.6-2.7.2-3.4-.7-3.8-2.7-1.3zM193.4 47.2c-.4.6-.2 1.4.4 1.6 1.4.4 1.6 8.2.2 8.2-.5 0-1 .4-1 1 0 1.3 4.7 1.3 5.4.1.4-.5.1-1.1-.6-1.3-.8-.3-1.1-2.2-.9-5.6.2-4.1-.1-5.2-1.3-5.2-.8 0-1.8.5-2.2 1.2zM181 65c-3.7 3.7-2 12 2.5 12 3.3 0 5.5-2.6 5.5-6.6 0-3.3-2.8-7.4-5-7.4-.5 0-1.9.9-3 2zm4.8 1.2c1.4 1.4 1.6 5.7.3 7.6-.5.8-1.7 1.2-2.7 1-2.3-.4-3.2-6.2-1.3-8.4 1.4-1.7 2.1-1.8 3.7-.2zM205.9 63.7c-3.3.9-4.5 8.7-1.7 12 3.3 4.1 9.6-1 8.4-6.9-.5-2.7-3.1-5.9-4.6-5.7-.3.1-1.2.3-2.1.6zm4.8 5.1c1.2 5-3.9 8.5-5.7 3.8-1.5-4 .7-8.1 3.7-6.9.7.3 1.6 1.7 2 3.1z"/><path d="M218 63.7c-5.6 2.1-4.4 13.3 1.5 13.3 4.9 0 6.8-7.8 2.9-12.1-1.8-2-2-2.1-4.4-1.2zm4.2 4.2c.4 4.4.2 5.5-1.4 6.4-3.7 2.4-6.6-4.4-3.3-7.7 1.8-1.8 4.4-1.1 4.7 1.3zM229.6 64.9c-1.1 1.2-1.3 2-.6 2.3 1.7.5 1.8 6.1.2 8-1.4 1.7-1.3 1.8 1.6 1.8 1.8 0 3.2-.5 3.2-1 0-.6-.4-1-.9-1s-.8-2.3-.7-5.1c.1-6.3-.5-7.5-2.8-5zM241.2 65.1c-.7 1.1-.8 1.9-.2 1.9 1.4 0 1.3 7.3-.2 8.8-.9.9-.5 1.2 2 1.2 1.8 0 3.2-.5 3.2-1 0-.6-.4-1-1-1-.5 0-1-2.4-1-5.4 0-6-.9-7.5-2.8-4.5zM253 64.3c-3.1 1.6-4.1 5.6-2.4 9.5 2.3 5.7 9.4 3.4 9.4-2.9 0-5.9-3-8.6-7-6.6zm5 5.2c0 3.7-1.1 5.5-3.1 5.5-2.1 0-4-3.6-3.1-6 .3-.8 1.2-2.1 2-2.7 2-1.6 4.2.1 4.2 3.2zM194 65.1c-1.1.8-1.2 1.2-.2 1.6 1.4.6 1.7 8.3.2 8.3-.5 0-1 .4-1 1 0 .5 1.4 1 3.2 1 2.5 0 2.9-.3 2-1.2-.7-.7-1.2-3.6-1.2-6.5 0-5.5-.4-6-3-4.2zM261.7 68.2c-.7 2.1.3 6.6 1.9 7.8 1.6 1.4 5.6.9 6.2-.8.3-.9-.3-1.1-2.1-.7-1.9.5-2.8.2-3.7-1.4-.6-1.2-.9-2.5-.6-2.9.3-.4.1-1.4-.3-2.1-.7-1-.9-1-1.4.1zM305.7 70.2c-.4 1-.9 2.5-1.2 3.3-.5 1.8-3.6 2-5.3.3-.9-.9-1.2-.8-1.2.4 0 1.7 2 2.8 5 2.8 2.3 0 4.3-3.3 3.7-6.3-.3-1.9-.4-2-1-.5zM252.6 82.3c-.9.7-2.1 3-2.6 5.1-.7 3.4-.5 4.1 1.5 6.2 3.8 3.8 8.5.9 8.5-5 0-3.6-.7-4.9-3.6-6.4-1.6-.8-2.5-.8-3.8.1zm3.8 2.3c2.2 2.2 2 7.1-.3 8.3-3.6 2-6.1-4.8-3.1-8.4 1.5-1.8 1.5-1.8 3.4.1zM182.2 83.2c-1.5 1.5-1.6 3.2-.2 2.3.6-.4 1 1 1 3.4 0 2.2-.5 4.3-1.1 4.7-1.7 1 .9 2.3 3.3 1.6 1.4-.3 1.6-.8.9-1.5-.6-.6-1.1-3.5-1.1-6.4 0-5.4-.6-6.3-2.8-4.1zM191.9 83.6c-.7.9-1.2 3.2-1.2 5.2.2 6.5 6.7 9.1 9.2 3.6 1.4-3.1 1.4-4.7-.1-7.9-1.3-2.9-5.8-3.5-7.9-.9zm6.7 2.8c.8 3.4-.3 6.3-2.7 6.9-2 .5-2.8-.3-3.3-4-.8-4.9 4.8-7.6 6-2.9zM203.6 84.1c-1.9 2.8-1.2 8 1.4 10.1 5.4 4.4 10.6-5.1 5.9-10.8-1.7-2.1-5.6-1.7-7.3.7zm6.8 2.2c.7 2.9-.2 6.4-1.9 7.1-1.7.6-4.2-2.3-4.2-4.9 0-4.5 5-6.4 6.1-2.2zM217.1 83.3c-.9 1.1-.9 1.6.2 2 1.7.6 1.5 6-.2 8.1-1.2 1.4-1 1.6 1.8 1.6 1.7 0 3.1-.5 3.1-1 0-.6-.4-1-.8-1-.5 0-.8-2.3-.8-5.2.1-5.3-1.2-7-3.3-4.5zM229 83.5c-.7.9-.8 1.5-.2 1.5 1.6 0 2 5.9.5 8-1.3 1.9-1.2 2 1.6 2 1.7 0 3.1-.5 3.1-1 0-.6-.5-1-1-1-.6 0-1-1.7-.9-3.8.3-7.5-.5-8.9-3.1-5.7zM239.6 83.6c-2.3 2.2-2 8 .4 10.4 4.4 4.4 10.1-2.4 7.5-8.8-1.6-3.6-5.2-4.4-7.9-1.6zm6.2 4.4c.3 2.4-.2 3.8-1.4 4.7-2.4 1.8-4.4-.1-4.4-4.2 0-3.8.7-4.7 3.5-4.3 1.5.2 2.1 1.2 2.3 3.8zM265.1 83.4c-.8 1-.9 1.6-.2 2.1.6.3 1 2.4.9 4.5-.1 2.2-.5 3.7-1.1 3.3-.5-.3-.8 0-.6.6.3.7.8 1.2 1.2 1.2.4-.1 1.7-.1 2.8-.1 1.8 0 1.9-.2.9-1.5-.7-.8-1.3-3.8-1.3-6.5 0-5.2-.6-6-2.6-3.6zM275.2 83.3C272.1 87 273 92.9 277 95c3 1.6 7.3-2.9 6.7-7-.6-3.8-1.5-5-3.4-5-1.3 0-1.3.3-.3 1.5 2 2.4 2 6.2 0 8-1.6 1.5-1.9 1.5-3.4-.1-1.8-1.8-1.6-7.6.3-8.2 1.3-.4 1.5-2.2.2-2.2-.5 0-1.3.6-1.9 1.3zM286.2 84.5c-1.5 3.2-1.5 4.8-.1 7.9 2.5 5.5 9 2.9 9.2-3.6.1-4.5-1.7-6.8-5.3-6.8-1.9 0-3 .7-3.8 2.5zm6.8 1.4c1 2.1 0 6.4-1.9 7.5-1.3.8-4.1-2.1-4.1-4.4 0-4.9 3.9-6.9 6-3.1zM300 83.5c-.9 1-.9 1.5-.1 1.5 1.5 0 1.4 7.3-.1 8.8-.9.9-.4 1.2 2.2 1.2s3.1-.3 2.2-1.2c-.7-.7-1.2-3.6-1.2-6.5 0-5.4-.8-6.4-3-3.8zM310 83.9c-1.4 2.7-1.3 8.4.2 9.9 1.9 1.9 6.6 1.5 7.8-.8.6-1.1.8-2.6.4-3.2-.5-.7-1-.3-1.6 1.1-1.3 3.6-5.2 2.5-5.6-1.7-.4-3.6 1.3-6.6 3.1-5.5.6.3.7.1.3-.5-1.1-1.8-3.4-1.4-4.6.7zM181.9 101.6c-.8.9-.9 1.8-.3 2.2 1.4 1 1.7 6.9.5 7.7-1.9 1.1-1.2 2.2 1.2 2 4-.4 4.2-.5 2.8-1.4-1-.6-1.4-2.5-1.2-5.9.1-5.5-.9-7.1-3-4.6zM191.7 102.1c-2.8 4-.3 11.7 3.9 11.9.6 0 2-1 3.1-2.3 2.3-2.5 2.5-7.6.4-10.1-1.9-2.2-5.7-2-7.4.5zm6.3 1.9c1.3 2.4.3 6.7-1.7 7.4-2.1.9-3 .1-3.7-3.5-1-5.2 3.1-8.2 5.4-3.9zM205.2 101.6c-1.1 1.2-1.1 1.5 0 1.9 1.7.7 1.7 7.3 0 8.4-1 .6-.8 1 .9 1.4 2.7.7 4.2 0 3.2-1.6-.5-.7-.9-3.2-.9-5.7-.1-2.5-.2-4.8-.3-5.3-.2-1.1-1.5-.8-2.9.9zM215.7 101.8c-3.4 3.7-.8 12.2 3.6 12.2 3.8 0 6.1-7.5 3.7-12.1-1.3-2.4-5.2-2.5-7.3-.1zm6.1 1.9c.9 1.4.1 6.8-1.2 8-.2.3-1.4 0-2.5-.7-2.1-1.1-2.7-4.2-1.5-7.4.8-2.1 4.1-2 5.2.1zM227.8 101.7c-2.8 3.2-2.8 7.3-.2 10 1.3 1.2 2.8 2.3 3.4 2.3 2.2 0 5-4.1 5-7.4 0-5.8-4.9-8.7-8.2-4.9zm6 4.4c.4 4.3-1.9 6.9-4.3 4.9-3-2.5-1.5-9.3 1.9-8.8 1.6.2 2.2 1.1 2.4 3.9zM240.9 101.7c-1.1 1.3-1.1 1.7-.1 2 1.4.5 1.7 8.3.2 8.3-.5 0-1 .4-1 .8 0 1 4.6 1 5.6-.1.4-.4.2-.7-.4-.7-.8 0-1.2-2-1.2-5.4 0-6-1-7.5-3.1-4.9zM252.9 101.6c-1 1.2-1 1.7-.1 2.3 1.3.8 1.3 6.9 0 7.7-1.5 1-.8 1.9 1.7 2 2.4.2 3.4-.9 1.7-2-.4-.2-.7-3-.6-6 .3-5.8-.4-6.8-2.7-4zM263.1 101.4c-2.7 3.2-2.2 9.9.9 11.6 2.7 1.4 5.8.1 6.9-3.1 1.8-5.2-.3-9.9-4.4-9.9-1.2 0-2.8.6-3.4 1.4zm5.8 2.4c1 1.9.4 6.9-1 7.8-1.5.9-4.5-1.4-4.6-3.7-.4-4.9 3.6-7.9 5.6-4.1zM274.7 101.8c-3.4 3.7-1.5 10.8 3 11.6 4.5.9 7.1-6.1 4.3-11.3-1.3-2.6-5.1-2.7-7.3-.3zm6.2 2.4c1.7 4.7-1.4 9.3-4.5 6.7-1.5-1.2-1.8-4.6-.8-7.3.9-2.3 4.3-2 5.3.6zM287.9 101.7c-1.1 1.3-1.1 1.7-.1 2 1.5.6 1.7 8.3.1 8.3-.5 0-.8.4-.5.8.4.7 2.7.8 5.6.3.2-.1-.1-.6-.8-1.3-.7-.7-1.2-3.6-1.2-6.5 0-5.5-.8-6.5-3.1-3.6zM298.6 101.6c-2.5 2.4-2.4 7.8.1 10.6 2.1 2.3 3.8 2.3 6.3-.2 3.9-3.9 1.8-12-3-12-1 0-2.6.7-3.4 1.6zm6.2 4.5c.2 2.4-.2 4-1.4 5-1.4 1.2-1.9 1-3.5-.9-1-1.3-1.6-3-1.3-3.7.2-.8.6-2.2.9-3.1.3-.9 1.4-1.4 2.7-1.2 1.8.2 2.4 1 2.6 3.9zM310.5 101.4c-3.7 2.7-1.2 12.6 3.2 12.6 2.3 0 5.3-3.9 5.3-6.8 0-3.4-2.5-7.2-4.9-7.2-.9 0-2.6.6-3.6 1.4zm5.9 2.2c1.7 4.5-.4 9.1-3.7 7.8-3.5-1.3-2.5-9.4 1.2-9.4 1 0 2.2.7 2.5 1.6zM323.6 101.8c-.4.7-.2 1.9.4 2.7.6.8 1 2.5.8 3.9-.2 1.4.2 2.5.7 2.6 1.4.1 1.5-4 .1-7.5-.8-2-1.5-2.5-2-1.7zM181.2 119.6c-4.3 3-2.1 12.4 3 12.4 4.4 0 6.6-9.1 3-12.3-2.3-2.1-3.2-2.1-6-.1zm5.2 2c1.8 4.6-.1 9-3.3 7.9-3.5-1.1-2.7-9.5.9-9.5 1 0 2.1.7 2.4 1.6zM192.6 119.9c-3.6 3.9-1.2 12.1 3.5 12.1 2.3 0 4.9-3.7 4.9-7s-2.6-7-4.9-7c-1 0-2.6.9-3.5 1.9zm5.2 1.3c2.9 2.9.4 9.6-3.1 8.2-2-.7-2.6-3.2-1.4-6.7 1-2.9 2.6-3.4 4.5-1.5zM205.9 119.7c-1.1 1.3-1.1 1.7-.1 2 1.4.5 1.7 8.3.2 8.3-.5 0-1 .4-1 1 0 .5 1.1 1 2.4 1 1.4 0 2.8-.5 3.1-1 .3-.6.1-1-.4-1-.7 0-1.1-2.3-1.1-5.4 0-6-1-7.5-3.1-4.9zM217.9 119.6c-.8 1-.9 1.8-.3 2.2 1.4.9 1.7 6.9.4 7.7-1.7 1.1-1.1 2.1 1.5 2.3 2.4.2 3.4-1.1 1.7-2.2-.5-.3-.8-2.8-.6-5.6.3-5.4-.6-6.9-2.7-4.4zM228 120c-2.5 2.5-2.6 7.1-.1 10.1 1.6 2 2.3 2.2 4.7 1.4 5.8-2.1 4.6-13.4-1.3-13.5-.7 0-2.2.9-3.3 2zm5.4 1.6c1.6 1.6 1.3 5.8-.6 7.9-2.6 2.8-6.3-5-3.7-8.1 1.5-1.8 2.4-1.8 4.3.2zM239.6 120.2c-.9 1.2-1.6 3.4-1.6 4.8 0 6.3 6.4 9.4 9 4.4 3.8-7-3.1-15.4-7.4-9.2zm6.4 2.8c.4 1.4.3 3.6-.1 4.8-1.5 4-5.9 2-5.9-2.8 0-5.1 4.8-6.7 6-2zM253 119.7c-1 1.2-1.1 1.8-.2 2.1 1.5.5 1.6 8.2.1 8.2-.5 0-.7.4-.4 1 .3.5 1.7 1 3.1 1 1.3 0 2.4-.5 2.4-1 0-.6-.4-1-1-1s-1-2.7-1-6c0-6.3-.5-7-3-4.3zM263.5 120c-3.5 3.8-1 12 3.6 12 2.3 0 4.9-3.7 4.9-7s-2.6-7-4.9-7c-1 0-2.6.9-3.6 2zm5.3 1.2c2.6 2.6.8 8.8-2.4 8.8-2.6 0-3.5-7.7-1-9.2 1.5-1 2-1 3.4.4zM275.3 120c-3.3 3.8-1.9 10.6 2.5 11.7 3.5.8 6.2-2.5 5.7-7.2-.6-6.3-4.7-8.6-8.2-4.5zm5.9 2.5c1.3 3-.2 7.5-2.6 7.5-3 0-4.4-6-2-8.4 2.2-2.2 3.3-2 4.6.9zM288.9 119.6c-.7.9-.9 1.8-.3 2.2 1.4 1.1 1.1 7.2-.5 8.2-1.2.7-.9 1 1.2 1.6 2.9.7 4.9-.2 3.1-1.4-.5-.4-.9-3.1-.9-6 .1-5.8-.6-7-2.6-4.6zM299 120c-2.4 2.4-2.6 6.7-.4 9.8 1.7 2.4 5.4 2.7 6.2.4.2-.7-.2-1-1.2-.6-3.9 1.5-6.4-5.8-3-8.7 1.3-1 1.9-1 3.6 0 2.6 1.6 3.9.3 1.4-1.5-2.7-1.9-4.2-1.8-6.6.6zM181.6 137.2c-2.4 1.4-3.1 7.4-1.2 10.3 1.9 2.9 5.7 3.3 7.7.9 1.7-2.1 1.5-8.1-.5-10.3-1.8-1.9-3.6-2.2-6-.9zm5 3c1.1 3.2 1.1 4.1.2 6-1.4 2.9-4.6 2.2-5.3-1.1-1.2-5.5 3.4-9.8 5.1-4.9zM194.5 137.7c-1.4 1.1-1.6 1.7-.7 2 1.5.6 1.6 7.5 0 9.1-.9.9-.5 1.2 2 1.2 1.8 0 3.2-.5 3.2-1 0-.6-.4-1-1-1-.5 0-1-2.7-1.2-5.9-.3-5.8-.4-5.9-2.3-4.4zM204.6 138.2c-3.3 4.7-1.2 11.8 3.6 11.8 4.6 0 6.6-8.2 2.8-12-2.6-2.6-4.5-2.5-6.4.2zm5.2 1c1.4 1.4 1.6 5.7.3 7.6-1.3 2.1-4.6 1-4.9-1.7-.8-5.5 1.7-8.8 4.6-5.9zM218 137.8c-1 1.1-1.1 1.7-.2 2 1.4.4 1.6 8.2.2 8.2-.5 0-1 .4-1 1 0 .5 1.1 1 2.4 1 1.4 0 2.8-.5 3.1-1 .3-.6.1-1-.4-1-.7 0-1.1-2.3-1.1-5.4 0-6-.7-7.2-3-4.8zM228.4 138.2c-2.3 2.6-2.5 7.8-.4 10.3 3.1 3.7 9 .1 9-5.5s-5.3-8.5-8.6-4.8zm5.8 2.3c2.2 4.9-2.7 10.3-5.1 5.6-1.8-3.2.1-8 3.2-8.1.4 0 1.3 1.1 1.9 2.5zM241.4 137c-2.7 1.1-3.8 6.3-2.1 9.9.9 1.9 2 2.6 4.2 2.6 5.2 0 7.1-7.7 2.9-11.9-1.7-1.8-2-1.8-5-.6zm4.8 3.5c2.2 4.9-2.7 10.2-5.2 5.6-1.4-2.7-1.3-4.7.6-6.5 2.2-2.2 3.3-2 4.6.9zM253.7 137.8c-1.3 1.4-1.5 2.1-.6 2.4 1.7.6 1.7 6 0 8-1.3 1.6-1.1 1.8 1.7 1.8 1.8 0 3.2-.5 3.2-1 0-.6-.4-1-.9-1s-.8-2-.7-4.4c.1-2.4 0-5.1-.4-6-.5-1.6-.7-1.6-2.3.2zM265.5 137.7c-1.4 1.1-1.6 1.7-.7 2 1.5.6 1.6 8.3.1 8.3-.5 0-.7.4-.4 1 .3.5 1.7 1 3.1 1 1.3 0 2.4-.5 2.4-1 0-.6-.4-1-1-1s-.9-2.4-.9-5.5c.1-3.1 0-5.7-.2-6-.2-.2-1.3.4-2.4 1.2zM276.2 137.6c-2.4 1.7-3 7-1.2 10.5 1.3 2.3 5.3 2.5 7.4.3 2.3-2.2 2-8-.4-10.4-2.4-2.4-2.9-2.4-5.8-.4zm5.8 5.3c0 3.5-1.4 5.4-3.6 4.9-2.7-.5-3.2-6.7-.8-8.5 2.3-1.7 4.4 0 4.4 3.6zM287.5 138c-3.5 3.8-1.4 12 3 12 3.5 0 5.9-4 5.1-8.5-.4-1.9-1.1-3.7-1.6-4-2.3-1.4-4.9-1.2-6.5.5zm4.9 1.6c3 2.9 1.5 8.9-2 8.2-2.2-.4-3.4-4.5-2.1-7.6 1.2-2.6 2-2.7 4.1-.6zM301 137.5c-.9 1.1-.9 1.9-.2 2.8 1.3 1.5 1.3 7.7 0 7.7-.4 0-.8.4-.8 1 0 .5 1.2 1 2.6 1 2.1 0 2.5-.3 1.9-1.8-.4-.9-.8-3.8-.9-6.4-.1-5.3-.8-6.5-2.6-4.3zM205.1 155.8c-3.8 3.1-3.4 9.9.8 12.1 2.8 1.6 6.4-1.6 6.6-6 .3-5.7-3.8-9.1-7.4-6.1zm4.3 1.8c2.1 2.1 2 5.7-.3 7.8-1.4 1.3-2 1.4-2.8.4-2.2-2.8-2.5-5.9-.7-7.9 2.1-2.3 1.9-2.3 3.8-.3zM216.8 156c-1.9 1.5-2.4 2.7-2.3 5.7.3 5.1.2 4.8 2.9 6.1 6.7 3 10.2-9.3 3.7-12.8-1.4-.7-2.5-.5-4.3 1zm5.3 2.7c.1 1 .2 2.5.3 3.3.2 2.1-2.3 5-3.9 4.4-1.6-.7-2.8-4.9-2-7.5.8-2.5 5.5-2.6 5.6-.2zM253.4 155.1c-4.8 1.7-4.5 11.9.4 13.1 4.5 1.2 7.9-6.1 5.2-11.1-1.2-2.4-3-3-5.6-2zm4.6 5.7c0 1.6-.6 3.6-1.3 4.5-1 1.5-1.5 1.6-3.1.4-2.1-1.5-2.5-6-.6-8.2 1.8-2.2 5-.1 5 3.3zM179.5 158.2c-1.1 2.6-1.1 3.9-.1 6.3 2.4 5.8 9.6 3.8 9.6-2.6 0-4.7-1.6-6.9-5.1-6.9-2.4 0-3.3.6-4.4 3.2zm7.3 3.6c-.3 3.2-.6 3.7-2.8 3.7-2.1 0-2.6-.5-2.8-3.3-.4-4.3 1.3-6.5 4-5.1 1.5.8 1.8 1.9 1.6 4.7zM194 156c-1.2.7-1.2 1.2-.2 2.2 1.4 1.4 1.6 7.8.2 7.8-2.1 0-.9 1.8 1.5 2.2 2.6.6 4.3-.6 2.5-1.7-.5-.3-1-3.1-1-6.1 0-5.5-.4-6.1-3-4.4zM229.1 156.4c-.9 1-.9 1.5 0 1.8 1.5.5 1.4 7.9-.1 8.8-.7.5-.2.9 1.4 1.2 2.7.5 4.1-.3 2.8-1.6-.4-.4-.8-2.9-.9-5.4 0-2.6-.2-5-.2-5.5-.2-1.2-1.8-.8-3 .7zM241 156.1c-1.1.8-1.2 1.2-.2 1.6 1.5.6 1.6 7.5 0 9.1-.9.9-.4 1.2 2.2 1.2s3.1-.3 2.2-1.2c-.7-.7-1.2-3.6-1.2-6.5 0-5.5-.4-6-3-4.2zM263 156.5c-2.1 2.6-1.7 8.5.9 10.6 4.8 3.9 9.8-2.6 7.2-9.4-.8-2.1-1.7-2.7-4-2.7-1.5 0-3.4.7-4.1 1.5zm5.4 1.1c2.1 2 2 5.8-.1 7.9-1.6 1.6-1.8 1.6-3.5-.5-1.8-2.3-1.7-5.1.4-7.8 1.3-1.5 1.3-1.5 3.2.4zM276.1 156.4c-.9 1-.8 1.5.2 1.9 1.7.6 1.6 7.5-.2 8.6-.9.6-.5 1 1.3 1.3 2.9.6 4.3-.6 2.8-2.5-.5-.7-.8-3.3-.7-6 .2-4.8-1.1-6.1-3.4-3.3zM286.8 156.7c-1.9 2.2-1.7 9.1.3 10.4 4.2 2.6 8.2-.1 8.2-5.6 0-1.9-.5-4.1-1.3-4.9-1.7-2.1-5.3-2-7.2.1zm6.5 3c.7 3.5-.8 6.3-3.3 6.3-2.2 0-3.4-3.1-2.6-6.6.9-3.6 5.2-3.3 5.9.3zM298 156.9c-1.2 2.3-1.3 7.1-.2 8.7.4.6 1.7 1.6 2.9 2.3 1.9 1 2.6.8 4.3-.9 2.6-2.6 3-8 .8-10.8-1.6-1.9-6.6-1.5-7.8.7zm6.8 1.7c1 1.8.5 5.1-1 7.1-1.8 2.2-4.8-.4-4.8-4.1 0-1.8.3-3.6.7-3.9 1.2-1.3 4.2-.7 5.1.9zM312 156.5c-.9 1-.9 1.5-.1 1.5 1.4 0 1.5 7.2 0 8.7-.7.7-.3 1.2 1.6 1.5 2.6.5 4.3-.6 2.5-1.7-.5-.3-1-3.1-1-6.1 0-5.5-.8-6.6-3-3.9zM321.9 157.2c-3.1 5.7.7 13.1 5.4 10.6 1.2-.6 2.5-1.6 2.9-2.2 1.2-1.8.8-7-.6-8.9-1.9-2.5-6.3-2.2-7.7.5zm6.5 1.4c1 2.7.7 6.1-.8 7.3-1.2 1-1.9.8-3.5-.8-1.1-1.1-1.8-2.7-1.6-3.6.3-.8.7-2.2 1-3 .6-2 4.1-1.9 4.9.1zM335.6 156.6c-.8 2.2-.8 2.6.4 1.9.6-.4 1 1 1 3.4 0 2.3-.4 4.1-1 4.1-.5 0-1 .4-1 1 0 .5.9 1 2 1 1.8 0 2-.7 2-6.5 0-4.9-.3-6.5-1.4-6.5-.8 0-1.7.7-2 1.6zM182.7 174.2c-1.4.7-1.6 1.3-.7 2.4 1.7 1.9 1.9 7.5.3 8.1-3 1.2.6 2.3 4.6 1.4.2-.1-.2-.7-.8-1.5-.7-.9-1.1-3.4-.8-6.1.4-5.1 0-5.8-2.6-4.3zM192.6 174.6c-3.3 3.2-.7 12.4 3.4 12.4 2.2 0 5-4.1 5-7.3-.1-5.9-4.8-8.8-8.4-5.1zm6.2 4.5c.4 4.3-1.9 6.9-4.3 4.9-3-2.5-1.5-9.3 1.9-8.8 1.6.2 2.2 1.1 2.4 3.9zM206.2 174.2c-1.5 1.5-1.6 3.2-.2 2.3.6-.4 1 1 1 3.4 0 2.2-.5 4.3-1.1 4.7-2 1.2 1.8 2.6 3.9 1.5.9-.6 1.1-1.1.5-1.1-.9 0-1.3-1.9-1.3-6 0-6-.6-7-2.8-4.8zM216.6 174.3c-3.8 2.8-1.3 12.9 3 12.3 4.8-.7 6.9-7 3.8-11.4-1.7-2.5-4.2-2.8-6.8-.9zm5.2 1.9c2.7 2.7.2 9.5-3 8.3-2.1-.8-2.9-4.1-1.8-7.1 1-2.6 2.9-3.1 4.8-1.2zM228.3 174.2c-2.9 3.8-1.9 11.1 1.6 12.3 5.5 1.7 9.2-7.1 5-12.1-1.4-1.7-5.3-1.8-6.6-.2zm5.8 3.1c1.9 4.2-2.3 10.4-4.6 6.7-2.1-3.4-.8-9 2.1-9 .8 0 1.9 1 2.5 2.3zM241.4 174.4c-.3.9-.2 2.2.3 2.9 1.4 1.8.9 6.7-.7 7.7-1.5 1-1.5 1 3.3 1.4.6.1 1-.6.8-1.4-.2-.8-.5-3.7-.5-6.4-.2-4.9-2-7.3-3.2-4.2zM253.2 174.2c-.8.8-.8 1.5-.1 2.4 1.8 2.1 1.7 7.4 0 8.4-.9.5-1.1 1-.6 1.1.6 0 2 .2 3.3.3 1.2.2 2.2-.1 2.2-.6 0-.4-.4-.8-1-.8-.5 0-.9-1.9-.9-4.3.2-8.1-.3-9.1-2.9-6.5zM263.6 174.6c-2.4 2.4-2.1 8.9.5 10.8 3.8 2.6 7.9-.5 7.9-6 0-3.6-2.2-6.4-5-6.4-1 0-2.6.7-3.4 1.6zm6.2 4.2c.4 4.3-1.3 6.5-3.9 5.1-1.3-.6-1.9-2.1-1.9-4.3 0-3.9.7-4.8 3.5-4.4 1.5.2 2.1 1.2 2.3 3.6zM274.5 176.5c-2.5 5.7 1 11.4 5.7 9.6 6-2.3 4.4-13.1-1.8-13.1-1.9 0-2.8.8-3.9 3.5zm6.9.1c1.1 2.8.6 6.1-1 7.5-1.4 1.1-1.9 1-3.5-.9-1-1.3-1.6-3-1.3-3.7.2-.8.6-2.2.9-3 .6-2 4.1-1.9 4.9.1zM288.9 174.6c-.9 1.2-1 1.7-.1 2.3.6.4 1.1 2.3 1 4.4-.1 2-.5 3.4-1.1 3-.5-.3-.8 0-.5.7.4 1.4 3.6 2.2 5.1 1.3.5-.3.3-.9-.4-1.3-.7-.5-1.2-2.8-1.2-5.9.1-5.6-.8-6.9-2.8-4.5zM298.6 175.2c-1.9 2.7-2 4.8-.5 8.2 1.3 2.9 2.9 3.7 5.7 2.9 3.7-.9 5-8.4 2.1-11.9-1.7-2.1-5.6-1.7-7.3.8zm6.5 2.1c1.1 2.4-.2 7.7-2 7.7-1.7 0-4.1-3.1-4.1-5.4 0-4.5 4.3-6.2 6.1-2.3zM310.7 174.8c-2.3 2.5-2.1 7.8.3 10.2 2.5 2.5 3.2 2.5 6 .2 2.5-2 3.1-8.2 1-10.7-1.7-2.1-5.4-1.9-7.3.3zm5.9 1.4c2.5 3.9-.9 10.4-4.1 7.8-1.5-1.3-2-4.6-.9-7.4.7-1.9 4-2.1 5-.4zM324.1 174.4c-.8 1-.9 1.6-.1 2.1 1.5.9 1.3 8.5-.2 8.5-.7 0-.5.5.5 1.1 2 1.1 5.8-.3 3.8-1.5-.6-.4-1.1-3.2-1.1-6.2 0-5.5-.8-6.6-2.9-4zM334.6 174.6c-2.3 2.3-2.1 8.7.4 10.9 2.5 2.3 3.9 1.2 1.7-1.3-2.5-2.7-2.2-8.2.3-8.9 1.1-.3 2-.9 2-1.4 0-1.5-2.7-1-4.4.7zM180.6 193.2c-3 4.2-.9 11.8 3.3 11.8 3.4 0 5.3-2.4 5.4-6.9.1-3.2-.4-4.7-1.8-5.7-2.7-2-5.2-1.7-6.9.8zm6.4 2.3c1.1 2.9-.3 7.5-2.3 7.5-2.1 0-3.7-2.2-3.7-5 0-5 4.4-6.8 6-2.5zM194.6 192.5c-1.6 1.2-1.7 1.6-.3 2.9 1.6 1.6 1.2 6.6-.7 7.8-1.5 1 2 2.2 4.1 1.4 1.3-.5 1.4-.9.5-1.5-.9-.5-1.2-2.6-1.1-5.9.3-6 0-6.5-2.5-4.7zM204.7 192.8c-3.5 3.9-1.1 12.2 3.5 12.2 4.4 0 6.6-9.1 3-12.3-2.4-2.2-4.5-2.1-6.5.1zm4.7.8c2.1.8 2.1 6.7.1 8.4-3.3 2.7-6.4-4.7-3.3-7.8 1.4-1.4 1.2-1.4 3.2-.6zM216.5 193c-3.5 3.8-1 12 3.6 12 2.3 0 4.9-3.7 4.9-7s-2.6-7-4.9-7c-1 0-2.6.9-3.6 2zm5.3 1.2c2.5 2.5.8 8.8-2.3 8.8-2 0-3.3-4.2-2.3-7.3 1.1-2.9 2.7-3.4 4.6-1.5zM229.9 192.7c-1.1 1.3-1.1 1.7-.1 2 .7.3 1.2 2.1 1.2 4.3 0 2.2-.5 4-1.2 4.3-2.5.8.1 1.9 2.9 1.2 1.5-.4 2.2-1 1.6-1.2-.8-.3-1.3-2.5-1.3-5.8 0-5.9-1-7.4-3.1-4.8zM242 192.5c-.8 1-1 1.9-.4 2.3 1.5 1.1 1.1 7.2-.6 8.2-1.7 1.1-1.6 1.1 2.3 1.6 2.5.3 3.7-.9 1.9-2-.4-.2-.7-2.5-.6-4.9.2-5.6-.7-7.4-2.6-5.2zM251.6 193.2c-2.1 3-2 7.1.2 9.8 4.1 5 10.6-1.3 8.1-7.8-1.8-4.7-5.8-5.7-8.3-2zm5.8.6c2.5 4.2.2 10.6-3.1 8.6-2.2-1.3-2.9-6-1.2-8 1.3-1.5 3.5-1.9 4.3-.6zM263.7 192.8c-3.3 3.6-1 12.2 3.2 12.2 2 0 4.8-2.7 5.1-5 1-7.3-4.2-11.8-8.3-7.2zm6.2 2.4c1 2.7-.5 7.8-2.3 7.8-2 0-3.6-2.2-3.6-5 0-4.8 4.4-6.8 5.9-2.8zM277 192.7c-1 1.2-1.1 1.8-.2 2.1 1.4.4 1.6 8.2.2 8.2-.5 0-1 .4-1 .8 0 1.1 4.8 1.3 5.5.2.3-.6.1-1-.4-1-.7 0-1.1-2.4-1.1-6 0-6.3-.5-7-3-4.3zM287.6 192.6c-2.5 2.5-2.4 7.8.1 10.6 2.2 2.4 4.9 2.2 6.7-.4 4.4-6.3-1.7-15.4-6.8-10.2zm5.2 1.6c2.6 2.6.8 8.8-2.4 8.8-2.2 0-3.2-4.9-1.9-8.8.6-1.5 2.7-1.6 4.3 0zM300.3 191.8c-4.1 2.6-3.4 11.1 1.1 12.7 2.4.8 3.1.6 4.8-1.5 4.3-5.3-.5-14.6-5.9-11.2zm4.7 3.1c1.5 2.8 1.2 5.7-.6 7.2-3.3 2.7-6.2-1.8-4.4-6.7 1.1-2.9 3.5-3.1 5-.5zM312.6 192.6c-1.7 1.2-1.8 1.4-.2 2 .9.3 1.5 1.1 1.4 1.8-.2.6.2 1.3.7 1.6 1 .5 1.6-5.8.6-6.5-.4-.2-1.5.3-2.5 1.1zM322.6 193.2c-1.8 2.5-2.1 5.8-.6 5.8.6 0 1-.8 1-1.9 0-2.2 2.4-4.5 4.1-3.9.7.2 1.8 1.9 2.4 3.8.8 2.3 1.3 2.9 1.7 1.9.3-.8 0-2.9-.8-4.7-1.6-3.9-5.5-4.4-7.8-1zM336.1 192.6c-.9 1.1-1 1.8-.4 2.3.6.3 1.3 1.5 1.6 2.6.2 1.1.5.1.6-2.3.1-4.7.1-4.7-1.8-2.6zM182.3 209.8c-4.4 2.7-2.8 13.2 2 13.2 3.1 0 4.8-2.1 5.2-6.4.5-5.3-3.5-9.1-7.2-6.8zm4.9 3.7c1.3 3-.3 7.5-2.7 7.5-2.2 0-3.7-4.4-2.5-7.5.5-1.4 1.6-2.5 2.5-2.5.8 0 2.1 1.1 2.7 2.5zM194.5 211c-1.4 1.6-1.5 2-.3 2 1 0 1.4 1.1 1.4 4 0 2.2-.4 4-.8 4s-.8.4-.8 1c0 .5 1.2 1 2.6 1 2.1 0 2.5-.3 1.9-1.8-.4-.9-.9-3.8-.9-6.4-.2-5.7-.7-6.4-3.1-3.8zM204.9 211.1c-3.8 3.8-1.3 11.9 3.6 11.9 4.2 0 6.6-7.4 3.6-11.1-2.3-2.9-4.8-3.2-7.2-.8zm5 1.3c1.8 2.2 2.1 5.3.6 7.3-1.1 1.4-1.8 1.6-3.2.7-2.2-1.3-2.9-6-1.2-8 1.4-1.8 2.3-1.8 3.8 0zM218.5 210.7c-1.4 1.1-1.6 1.7-.7 2 1.4.6 1.7 8.3.2 8.3-.5 0-1 .4-1 1 0 .5 1.4 1 3 1 1.7 0 3-.5 3-1 0-.6-.4-1-1-1-.5 0-1-2.7-1.2-5.9-.3-5.8-.4-5.9-2.3-4.4zM229.2 210.6c-4.3 3-2.2 12.4 2.8 12.4 4.5 0 6.6-8.4 3-12-2.4-2.4-2.9-2.4-5.8-.4zm4.6 1.6c1.4 1.4 1.6 5.7.3 7.6-.5.8-1.7 1.2-2.7 1-2.3-.4-3.2-6.2-1.3-8.4 1.4-1.7 2.1-1.8 3.7-.2zM240.9 210.9c-1.7 1.4-2.3 2.8-2.2 5.5.1 4.4 1.7 6.6 4.9 6.6 4.9 0 7.2-8.2 3.4-12-2.5-2.5-3.2-2.5-6.1-.1zm4.9 1.3c2.6 2.6.8 8.8-2.5 8.8-2.4 0-3.6-5-1.8-7.6 1.7-2.7 2.6-2.9 4.3-1.2zM254 210.6c-.9.9-1 1.8-.4 2.2 1.2.9 1.5 8.2.3 8.2-.5 0-.9.4-.9 1 0 .5 1.2 1 2.6 1 2.1 0 2.5-.3 1.9-1.8-.4-.9-.8-3.8-.9-6.4-.1-5.4-.8-6.5-2.6-4.2zM265.6 210.9c-1.4 1.5-1.4 1.9-.3 2.4 1.4.5 1.6 4.8.2 7.9-.6 1.5-.2 1.8 1.9 1.8 1.4 0 2.6-.5 2.6-1 0-.6-.4-1-.9-1-.4 0-.8-2.5-.7-5.6.2-6.3-.4-7.2-2.8-4.5zM276 211c-3.8 3.8-1.5 12 3.5 12 4.3 0 6.1-7.3 2.9-11.8-1.9-2.7-3.8-2.8-6.4-.2zm5.8 5.9c-.3 3.8-3.3 5.6-4.9 2.9-1.5-2.3-1-6.6.8-7.7 2.7-1.5 4.5.6 4.1 4.8zM288.2 210.6c-4.3 3-2 12.4 3.1 12.4 4.6 0 6.4-8.3 2.7-12-2.4-2.4-2.9-2.4-5.8-.4zm4.7 1.8c1.9 2.2 1 8-1.3 8.4-2.2.5-3.6-1.4-3.6-4.9 0-2.4 1.6-4.9 3.1-4.9.4 0 1.2.6 1.8 1.4zM301 210.8c-1 1.1-1.1 1.7-.2 2 1.4.4 1.6 8.2.2 8.2-.5 0-1 .4-1 1 0 .5 1.1 1 2.4 1 1.4 0 2.8-.5 3.1-1 .3-.6.1-1-.4-1-.7 0-1.1-2.3-1.1-5.4 0-6-.7-7.2-3-4.8zM183 227.7c-2.4.8-4 3.5-4 6.8 0 4.5 2 6.7 5.5 6.3 5.3-.6 6.6-9.4 1.9-12.4-1-.6-2.6-.9-3.4-.7zm3.8 7.2c-.3 3.1-.7 3.6-2.8 3.6-2.1 0-2.5-.5-2.8-3.5-.3-2.4.2-3.8 1.4-4.7 2.6-1.9 4.6.2 4.2 4.6zM195 227.8c-2.5.8-4 3.4-4 7.2 0 4.2 1.4 6 4.8 6 3 0 5.1-2.6 5.2-6.3 0-5-2.6-8-6-6.9zm4 5.7c0 3.6-1 5.5-3.1 5.5-3.4 0-4.4-5.2-1.7-8.7 1.5-1.9 4.8.3 4.8 3.2zM216.9 228.9c-2.6 2.1-3 8-.8 10.7 1.9 2.4 6.2 1.3 7.7-1.9 3-6.2-2.1-12.7-6.9-8.8zm5.6 4.3c.5 2.1.2 3.5-1.1 4.9-1.6 1.8-1.8 1.8-3.6.3-1.7-1.6-1.8-3.8-.3-7.5 1-2.6 4.3-1.1 5 2.3zM240 229.3c-3 3.1-2.4 9.3.9 11.4 2.7 1.7 6.5-.6 7.2-4.2 1.2-6.5-4.3-11.4-8.1-7.2zm6 2.8c1.4 2.5-.4 6.9-2.9 6.9-2 0-3.1-1.8-3.1-5.4 0-4.5 3.9-5.5 6-1.5zM252 229c-4 4-2 12 3 12 3.3 0 5-2.3 5-6.7 0-5.5-4.7-8.6-8-5.3zm5.8 5.9c-.3 3.1-.7 3.6-2.8 3.6-2.1 0-2.5-.5-2.8-3.5-.3-2.4.2-3.8 1.4-4.7 2.6-1.9 4.6.2 4.2 4.6zM287.5 229.4c-1.8 1.8-2.3 3.2-2 5.7.6 4.3 3.9 7.3 6.6 5.9 4.6-2.5 4.8-10.8.3-12.9-2.1-.9-2.8-.8-4.9 1.3zm6 3.8c.6 2.3.2 3.5-1.3 5l-2 2-1.7-2.5c-1.1-1.7-1.4-3.4-.9-4.9 1.4-4.7 4.9-4.4 5.9.4z"/><path d="M300.3 228.3c-4.1 1.8-4.5 8.6-.6 11.6 2.3 1.9 2.9 2 4.7.8 2.2-1.5 3.7-5.7 2.9-8.4-.8-3-4.5-5.1-7-4zm5.1 7.1c-.3 1.2-1.2 2.7-1.9 3.4-1 1.1-1.5 1.1-2.9-.3-2.1-2.1-2.1-5.9.1-8 1.6-1.6 1.8-1.6 3.5.5 1.2 1.4 1.6 3.1 1.2 4.4zM206.3 228.7c-.7.2-1.3 1.1-1.3 1.9 0 .9.5 1.2 1 .9.6-.4 1 1 1 3.4 0 2.3-.4 4.1-1 4.1-.5 0-1 .4-1 1 0 .5 1.4 1 3.2 1 2.5 0 2.9-.3 2-1.2-.7-.7-1.2-3.6-1.2-6.5 0-5.2-.3-5.6-2.7-4.6zM229.1 229.4c-.9 1.1-.9 1.5.1 1.8 1.8.6 1.7 7.1-.1 8.5-1.4 1-1.1 1.2 1.7 1.3 1.7 0 3.2-.5 3.2-1 0-.6-.4-1-.8-1-.5 0-.8-2.5-.7-5.5.1-5.6-1-7-3.4-4.1zM265 229.1c-1.1.8-1.2 1.2-.2 1.6 1.4.6 1.7 8.3.2 8.3-.5 0-1 .4-1 1 0 .5 1.4 1 3.2 1 2.5 0 2.9-.3 2-1.2-.7-.7-1.2-3.6-1.2-6.5 0-5.5-.4-6-3-4.2zM277 229.1c-1.1.8-1.2 1.2-.2 1.6 1.4.6 1.7 8.3.2 8.3-.5 0-1 .4-1 1 0 .5 1.4 1 3.1 1 2.7 0 3-.2 1.9-1.5-.8-.9-1.2-3.7-1.1-6.5.1-5.1-.3-5.7-2.9-3.9zM313.3 236.2c.2.7-.2 2.1-1.1 3-1.4 1.7-1.3 1.8 1.6 1.8 1.8 0 3.2-.5 3.2-1 0-.6-.4-1-1-1-.5 0-1-.9-1-2s-.5-2-1.1-2c-.6 0-.9.6-.6 1.2zM182.1 247.4c-.8 1-.8 1.6.2 2.4 1.7 1.4 1.3 7.2-.5 8.3-1 .7-1 .9 0 1 .6.1 1.8.2 2.5.3 2.1.4 2.8-.5 1.7-1.9-.7-.8-1.1-2.9-1-4.7.4-7-.4-8.4-2.9-5.4zM192.6 247.6c-3.3 3.2-.7 12.4 3.4 12.4 2.2 0 5-4.1 5-7.3-.1-5.9-4.8-8.8-8.4-5.1zm6.2 4.5c.4 4.3-1.9 6.9-4.3 4.9-3-2.5-1.5-9.3 1.9-8.8 1.6.2 2.2 1.1 2.4 3.9zM206.2 247.2c-1.5 1.5-1.6 3.2-.2 2.3.6-.4 1 1.2 1 4s-.4 4.4-1 4c-.5-.3-1-.2-1 .3 0 1.4 2.2 2 4.4 1.2 1.4-.4 1.6-.9.8-1.4-.7-.4-1.2-3-1.2-6.2 0-5.5-.6-6.4-2.8-4.2zM216 247.5c-2.2 2.6-1.6 8.6 1 10.7 2.7 2.2 3.4 2.2 5.4.2 2.5-2.4 3.1-6.4 1.5-9.3-1.7-3.1-6-3.9-7.9-1.6zm6.4 2.1c1 2.7.7 5.2-1 6.9-1.5 1.4-1.9 1.5-3.1.2-1.8-1.8-2.3-4.7-1.1-7 1.1-2.1 4.4-2.2 5.2-.1zM228.3 247.2c-1.9 2.5-2.3 5.2-1.2 8.5 1 3.2 1.4 3.5 4.4 3.5 2.9 0 3.3-.2 4.3-3.2 1.9-5.3-.2-10-4.3-10-1.2 0-2.7.6-3.2 1.2zm5.7 2.8c.6 1.1.8 3.1.4 4.4-1.1 4.7-5.3 4-5.8-1-.6-5 3.3-7.4 5.4-3.4zM241.1 247.4c-.9 1-.9 1.5 0 1.8 1.6.5 1.9 6.7.3 8.2-1.7 1.8-1 2.4 2.1 1.8 1.6-.3 2.2-.9 1.7-1.6-.4-.6-.7-3.3-.7-6 0-5.1-1.3-6.7-3.4-4.2zM253.1 247.4c-.8 1-.8 1.6.2 2.4 1.6 1.4 1.4 7.2-.3 8.2-1.3.8-.2 1.7 1.8 1.4.6-.1 1.7-.2 2.3-.3.8-.1.8-.5.1-1.4-.6-.7-1.1-3.1-1.1-5.3.2-6.9-.5-8-3-5zM263 247.9c-3.6 6.8 2.1 15 7 10.1 4-4 2-12-3-12-1.9 0-3.3.7-4 1.9zm6.8 4.1c.4 4-2.2 6.8-4.5 4.9-2.8-2.4-1.2-9.2 2.1-8.7 1.6.2 2.2 1.1 2.4 3.8zM275.6 247.6c-3.9 3.9-1.1 12.8 3.7 11.8 2.9-.5 4.7-3.1 4.7-6.8-.1-5.8-4.8-8.6-8.4-5zm5.8 2c1.8 4.6-1 9.5-4.3 7.5-1.3-.9-1.8-6.1-.7-8 1-1.6 4.3-1.4 5 .5zM289.1 247.4c-.7.8-.8 1.7-.4 1.9 1.3.8 1.5 6.8.2 8.3-.6.8-1 1.4-.8 1.5 3.5.8 4.9.4 4.3-1-.3-.9-.6-4-.6-6.9 0-5.3-.6-6.3-2.7-3.8zM299.2 247.2c-4.5 5.8-.5 14.2 5.5 11.5 5-2.3 3.3-12.7-2.2-12.7-1.2 0-2.7.6-3.3 1.2zm5.7 2.7c1.2 2.2.6 6.2-1 7.2-3 1.8-5.5-1.9-4.3-6.5.7-3.1 3.8-3.5 5.3-.7zM310.4 248.5c-1.9 2.9-1.2 9.3 1.2 10.2 2.3.8 2.8-.4 1-2.2-2.7-2.7-1.8-8.5 1.4-8.5 1 0 2.5 1 3.3 2.2 1.5 2.2 1.6 2.2 1.6.2.2-4.7-5.8-6.1-8.5-1.9zM180.6 266.2c-.9 1.2-1.6 3.5-1.6 5 0 2.9 3 6.8 5.3 6.8 2.4 0 4.7-3.6 4.7-7.3 0-6.1-5.3-9-8.4-4.5zm6.4 2.8c.7 2.8-.7 7-2.5 7-2.9 0-4.4-4.5-2.9-8.5 1-2.5 4.7-1.4 5.4 1.5zM194.1 265.4c-.8 1-.9 1.6-.1 2.1 1.3.8 1.3 8.5-.1 8.5-.5 0-.7.4-.4 1 .3.5 1.5.8 2.5.7 2.2-.4 3.9-1.7 2.2-1.7-.8 0-1.2-2.1-1.2-6 0-6-.8-7.2-2.9-4.6zM205.2 264.9c-1.9 1.2-3 6.3-1.9 9.3.5 1.6 1.2 2.8 1.5 2.9.4 0 1.7.2 2.9.5 1.5.2 2.7-.4 3.8-1.8 4-5.8-.9-14.4-6.3-10.9zm4.6 2.3c1.6 1.6 1.5 6.3-.2 7.7-3.1 2.6-6.2-2-4.5-6.7.9-2.4 2.9-2.8 4.7-1zM216.2 265.6c-2.2 2.4-2.2 8 0 10.4 2.4 2.5 4.3 2.5 6.7.1 2.2-2.2 2.2-8.1.1-10.6-1.6-1.9-5.1-1.9-6.8.1zm6.2 2.6c1.1 1.9-.1 6.9-1.9 7.5-3 .9-5.3-4.4-3.4-7.9 1.2-2.2 3.7-2 5.3.4zM229.5 266c-1.4 1.5-1.5 2-.4 2 1 0 1.4 1.3 1.4 4 .1 2.9-.3 4-1.4 4-2.2 0-.3 1.4 2.4 1.7 1.4.2 2.5-.1 2.5-.7 0-.5-.4-1-.8-1-.5 0-.8-2.5-.7-5.5.2-6.3-.5-7.3-3-4.5zM241.2 266c-1 1.6-1 2 .1 2 1.8 0 1.6 6.8-.3 8-1.7 1.1-1.6 1.1 2.3 1.4 2.7.3 3.4-.4 2-1.8-.5-.4-.9-2.9-.9-5.4-.1-2.6-.2-5-.3-5.5-.2-1.3-1.6-.7-2.9 1.3zM251.7 265.8c-3.3 3.6-1 12.2 3.2 12.2 2 0 4.8-2.7 5.1-5 1-7.3-4.2-11.8-8.3-7.2zm6.1 4.2c.3 4.7-1.1 6.9-3.5 5.4-2.1-1.3-2.7-3.6-1.9-7 .5-1.9 1.2-2.5 2.9-2.2 1.7.2 2.3 1 2.5 3.8zM263.2 266c-2.9 4.7-.4 12 4.1 12 2.1 0 4.7-3.8 4.7-7 0-5.8-6.1-9.3-8.8-5zm6.2 1.6c1.5 4 0 8.4-3.1 8.4-1.6 0-2.7-4.3-1.9-7.5.7-2.8 4-3.4 5-.9zM276.9 265.7c-1.1 1.3-1.1 1.7-.1 2 .6.3 1.2 1.1 1.2 1.9 0 .9.5 1.2 1 .9 1.1-.7 1-6.5-.1-6.5-.4 0-1.3.7-2 1.7zM287.1 265.4c-1.7 2.1-1.8 6.8-.2 7.4 1 .3 1.2 0 .8-1.2-.9-2.2.9-5.6 2.8-5.6 2.9 0 4.2 5.5 2.1 8.8-.4.7-.5 1.6-.2 1.9 1.2 1.2 2.8-1.5 3.1-5.2.6-5.8-5.2-10-8.4-6.1zM298.9 265.6c-2.1 2.5-1.7 9.3.5 11 2.7 1.9 3.9.7 1.6-1.6-1.1-1.1-2-2.7-2-3.6 0-2.4 1.9-5.4 3.5-5.4 1.7 0 3.7 3.4 2.7 4.5-.4.5-.1.5.6.1 1.5-.9 1.6-3.8 0-5.4-1.7-1.7-5.3-1.5-6.9.4zM181.2 283.6c-2.7 1.8-3.1 8.4-.6 10.8 5.2 5.2 11.3-3.8 6.8-10.2-1.8-2.6-3.2-2.8-6.2-.6zm4.6 1.6c1.4 1.4 1.6 5.7.3 7.6-.5.8-1.7 1.2-2.7 1-2.3-.4-3.2-6.2-1.3-8.4 1.4-1.7 2.1-1.8 3.7-.2zM193.9 283.7c-1.1 1.3-1.1 1.7-.1 2 1.4.5 1.7 8.3.2 8.3-.5 0-1 .4-1 1 0 .5 1.4 1 3.2 1 2.5 0 2.9-.3 2-1.2-.7-.7-1.2-3.6-1.2-6.4 0-5.8-1-7.3-3.1-4.7zM205.4 282.8c-3.1 2-3.9 8.7-1.3 11.8 1.6 1.9 5.3 1.8 7-.2 2.1-2.5 1.7-9.3-.6-11-2.1-1.6-3.5-1.7-5.1-.6zm4.9 3.4c2.2 3.3-1.8 9.7-4.4 7.1-1.8-1.8-2-6.1-.3-7.8 1.8-1.8 3.3-1.6 4.7.7zM217.6 283.9c-1.3 1.5-1.4 2-.4 2.3 1.8.6 1.7 7-.2 8.5-1.3 1-1 1.2 1.8 1.3 1.7 0 3.2-.5 3.2-1 0-.6-.4-1-.9-1s-.8-2.5-.6-5.5c.2-6.3-.5-7.3-2.9-4.6zM228 284c-3.8 3.8-1.5 12 3.5 12 4.5 0 6.4-8.2 2.9-12.1-2.2-2.4-3.9-2.4-6.4.1zm5.8 2.8c1.7 5-1.4 9.2-4.6 6-2.5-2.5-.8-8.8 2.4-8.8.7 0 1.6 1.2 2.2 2.8zM239.6 283.9c-3.4 3.8-1 12.1 3.6 12.1 2.4 0 4.8-3.4 4.8-6.6 0-5.8-5.1-9.2-8.4-5.5zm5.2 1.3c2.4 2.4 1.1 8.8-1.8 8.8-1.9 0-3-1.9-3-5.4 0-2.1 1.7-4.6 3-4.6.3 0 1.1.5 1.8 1.2zM253 283.7c-1 1.2-1.1 1.8-.2 2.1 1.4.4 1.6 8.2.2 8.2-.5 0-1 .4-1 1 0 .5 1.1 1 2.4 1 1.4 0 2.8-.5 3.1-1 .3-.6.1-1-.4-1-.7 0-1.1-2.4-1.1-6 0-6.3-.5-7-3-4.3zM264.9 283.7c-1.3 1.6-1.2 1.7.4.4 1.6-1.3 2.1-2.1 1.3-2.1-.2 0-1 .8-1.7 1.7zM193 302c-2.3 2.3-2.6 7.6-.6 10.2 1.9 2.6 6.3 2.3 7.7-.4 1.8-3.4 1.3-8.1-1.2-10-2.7-2.3-3.5-2.2-5.9.2zm5.7 3c2.1 4.2-2.4 9.7-4.8 5.8-1.3-1.9-1.1-6.2.3-7.6 1.6-1.6 3-1 4.5 1.8zM205 302c-3.7 3.7-2 12 2.5 12 3.3 0 5.5-2.6 5.5-6.6 0-3.3-2.8-7.4-5-7.4-.5 0-1.9.9-3 2zm4.9 1.4c.7.8 1.1 3 .9 4.8-.2 2.8-.7 3.3-2.8 3.3-2.1 0-2.6-.5-2.8-3.3-.3-3.1 1.1-6.2 2.8-6.2.4 0 1.3.6 1.9 1.4zM240.3 302.2c-3.7 4.1-1.6 11.8 3.2 11.8 4.7 0 6.8-7.1 3.3-11.5-2.4-3.1-3.9-3.2-6.5-.3zm5.9 2.7c0 .9.2 2.3.3 3.1.4 4-4.8 5.6-5.9 1.7-.9-3.4-.7-4.4.9-6.1 1.8-1.8 4.4-1.1 4.7 1.3zM254 300.8c-4.1 1.3-5.5 8.6-2.2 11.5 2.3 2.1 5.6 2.2 7.2.2 1.3-1.5 1.6-7.7.5-9.4-1-1.7-3.8-2.9-5.5-2.3zm4.2 5c.8 2.8-.9 6.2-3.1 6.2-3.3 0-4.4-7.1-1.4-8.9 2-1.1 3.8 0 4.5 2.7zM182.1 302.4c-.9 1.1-.9 1.5 0 1.8 1.8.6 1.7 7.1-.1 8.5-1.3 1-1 1.2 1.8 1.3 1.7 0 3.2-.5 3.2-1 0-.6-.4-1-.9-1s-.8-2.5-.7-5.5c.2-5.6-.9-7-3.3-4.1zM217.6 302.5c-.3.8-.1 1.5.5 1.5s.9 1.9.8 4.7c-.3 4.4-.2 4.8 2.1 5.1 2 .3 2.3.1 1.3-.9-.7-.7-1.3-3.7-1.3-6.6 0-3.9-.4-5.3-1.4-5.3-.8 0-1.6.7-2 1.5zM229.4 302.1c-.3.6-.1 1.6.5 2.2 1.4 1.4 1.5 7.7.1 7.7-.5 0-1 .4-1 1 0 .5 1.4 1 3.1 1 2.7 0 3-.2 1.9-1.5-.8-.9-1.2-3.7-1.1-6.5.1-3.8-.2-5-1.3-5-.8 0-1.8.5-2.2 1.1zM264.6 302.8c-.4.7-.3 1.2.3 1.2.5 0 1.1 1.7 1.3 3.7.3 3 .6 3.4 1.2 2 1.1-2.3-1.6-8.8-2.8-6.9zM180.6 321.1c-3 4.4.9 12.8 5.2 11.2 3.7-1.4 5.2-7.2 2.7-10.9-1.9-3-5.9-3.1-7.9-.3zm6.8 3c.6 3.3 0 5.5-1.8 6.2-2.2.9-3.9-1-3.9-4.2 0-6 4.5-7.7 5.7-2zM222 319.1c0 .4.7 2 1.5 3.5.8 1.6 1.5 2.2 1.5 1.3 0-1.4-2.9-6.1-3-4.8zM230.2 320.2c-1.5 1.5-1.6 3.2-.2 2.3.6-.4 1 .8 1 2.9 0 2 .5 3.6 1 3.6.6 0 1-2.3 1-5 0-5.1-.6-6-2.8-3.8zM240.3 320.2c-.6.7-1.3 2.4-1.6 3.8l-.6 2.5 2.3-2.8c1.3-1.6 2.9-2.7 3.7-2.5.8.2 1.6-.2 1.7-.7.4-1.5-4.3-1.8-5.5-.3zM191.3 324.6c-.3.8-.1 2.5.4 3.7.8 1.8 1 1.6 1-1.6 0-4-.4-4.6-1.4-2.1zM182.2 338.5c-1.1 1.3-.9 1.5.8 1.5 1.1 0 2-.7 2-1.5 0-1.9-1.1-1.9-2.8 0z"/></svg>