<?xml version="1.0" encoding="UTF-8"?>
<svg width="35px" height="36px" viewBox="0 0 35 36" version="1.1" xmlns="http://www.w3.org/2000/svg" xmlns:xlink="http://www.w3.org/1999/xlink">
    <!-- Generator: Sketch 50 (54983) - http://www.bohemiancoding.com/sketch -->
    <title>settings</title>
    <desc>Created with Sketch.</desc>
    <defs>
        <polygon id="path-1" points="0.0477272727 0.64 34.3628409 0.64 34.3628409 35.1992 0.0477272727 35.1992"></polygon>
    </defs>
    <g id="delflandgolf.nl" stroke="none" stroke-width="1" fill="none" fill-rule="evenodd" opacity="0.75">
        <g id="Melding--&gt;-delflandgolf.nl" transform="translate(-318.000000, -380.000000)">
            <g id="settings" transform="translate(318.000000, 380.000000)">
                <g id="Group">
                    <g id="Group-3">
                        <mask id="mask-2" fill="white">
                            <use xlink:href="#path-1"></use>
                        </mask>
                        <g id="Clip-2"></g>
                        <path d="M32.5953409,14.0808 L29.3793182,14.0808 C28.8630682,14.0808 28.4375,13.7928 28.2386364,13.3152 C28.0429545,12.8336 28.1423864,12.3272 28.5059091,11.9616 L30.7801136,9.6744 C31.1126136,9.34 31.2963636,8.8928 31.2963636,8.4184 C31.2963636,7.9432 31.1126136,7.496 30.7801136,7.1584 L27.8814773,4.2432 C27.2132955,3.5712 26.0479545,3.5712 25.3797727,4.2432 L23.1055682,6.5304 C22.7420455,6.896 22.2385227,6.9992 21.7628409,6.7992 C21.2847727,6.5992 20.9984091,6.1712 20.9984091,5.6528 L20.9984091,2.4184 C20.9984091,1.4368 20.2061364,0.64 19.2309091,0.64 L15.1319318,0.64 C14.1567045,0.64 13.3644318,1.4368 13.3644318,2.4184 L13.3644318,5.6528 C13.3644318,6.1712 13.0780682,6.5992 12.6031818,6.7992 C12.1243182,6.9992 11.6207955,6.896 11.2572727,6.5304 L8.98306818,4.2432 C8.31488636,3.5712 7.14954545,3.5712 6.48136364,4.2432 L3.58272727,7.1584 C3.25022727,7.4928 3.06647727,7.9432 3.06647727,8.4184 C3.06647727,8.8928 3.25022727,9.34 3.58272727,9.6744 L5.85693182,11.9616 C6.22045455,12.3272 6.31988636,12.8336 6.12420455,13.3152 C5.92852273,13.7928 5.49977273,14.0808 4.98431818,14.0808 L1.76829545,14.0808 C0.792272727,14.0808 0,14.8776 0,15.8584 L0,19.9808 C0,20.9616 0.792272727,21.7584 1.76829545,21.7584 L4.98431818,21.7584 C5.49977273,21.7584 5.92534091,22.0464 6.12420455,22.5272 C6.32306818,23.0056 6.22045455,23.512 5.85693182,23.8776 L3.58272727,26.1648 C3.25022727,26.4992 3.06647727,26.9496 3.06647727,27.4216 C3.06647727,27.8992 3.25022727,28.3464 3.58272727,28.6808 L6.48136364,31.596 C7.14954545,32.268 8.31488636,32.268 8.98306818,31.596 L11.2572727,29.3088 C11.6207955,28.9432 12.1243182,28.8432 12.6031818,29.04 C13.0780682,29.24 13.3644318,29.668 13.3644318,30.1872 L13.3644318,33.4216 C13.3644318,34.4024 14.1567045,35.1992 15.1319318,35.1992 L19.2309091,35.1992 C20.2061364,35.1992 20.9984091,34.4024 20.9984091,33.4216 L20.9984091,30.1872 C20.9984091,29.668 21.2847727,29.24 21.7596591,29.04 C22.2385227,28.84 22.7420455,28.9432 23.1055682,29.3088 L25.3797727,31.596 C26.0479545,32.268 27.2132955,32.268 27.8814773,31.596 L30.7801136,28.6808 C31.1126136,28.3464 31.2963636,27.8992 31.2963636,27.4216 C31.2963636,26.9496 31.1126136,26.5024 30.7801136,26.1648 L28.5059091,23.8776 C28.1423864,23.512 28.0429545,23.0056 28.2386364,22.5272 C28.4343182,22.0464 28.8630682,21.7584 29.3793182,21.7584 L32.5953409,21.7584 C33.5705682,21.7584 34.3628409,20.9616 34.3628409,19.9808 L34.3628409,15.8584 C34.3628409,14.8776 33.5705682,14.0808 32.5953409,14.0808 Z M33.0925,19.9808 C33.0925,20.256 32.8681818,20.4808 32.5953409,20.4808 L29.3793182,20.4808 C28.3476136,20.4808 27.4590909,21.0776 27.06375,22.0368 C26.6660227,22.996 26.8744318,24.0496 27.6078409,24.784 L29.8788636,27.0712 C30.0753409,27.2648 30.0753409,27.5808 29.8788636,27.7776 L26.9834091,30.6896 C26.7877273,30.884 26.4735227,30.8872 26.2810227,30.6896 L24.0068182,28.4056 C23.2765909,27.668 22.2289773,27.4616 21.2752273,27.8584 C20.3214773,28.256 19.7280682,29.1496 19.7280682,30.1872 L19.7280682,33.4216 C19.7280682,33.696 19.5045455,33.9216 19.2309091,33.9216 L15.1319318,33.9216 C14.8590909,33.9216 14.6347727,33.696 14.6347727,33.4216 L14.6347727,30.1872 C14.6347727,29.1496 14.0445455,28.256 13.0876136,27.8584 C12.7678409,27.724 12.4385227,27.6584 12.1123864,27.6584 C11.4688636,27.6584 10.84125,27.9152 10.3568182,28.4024 L8.085,30.6896 C7.88931818,30.8872 7.57511364,30.884 7.37943182,30.6896 L4.48397727,27.7776 C4.29147727,27.5808 4.29147727,27.2648 4.48397727,27.068 L6.75818182,24.784 C7.48840909,24.0496 7.69681818,22.996 7.29909091,22.0368 C6.90454545,21.0776 6.01840909,20.4808 4.98431818,20.4808 L1.76829545,20.4808 C1.49465909,20.4808 1.27431818,20.256 1.27431818,19.9808 L1.27431818,15.8584 C1.27431818,15.584 1.49465909,15.3584 1.76829545,15.3584 L4.98431818,15.3584 C6.01840909,15.3584 6.90454545,14.7648 7.29909091,13.8024 C7.69681818,12.8432 7.48840909,11.7896 6.75818182,11.056 L4.48397727,8.7712 C4.29147727,8.5744 4.29147727,8.2584 4.48397727,8.0616 L7.37943182,5.1496 C7.57511364,4.956 7.88931818,4.956 8.085,5.1496 L10.3568182,7.4336 C11.0870455,8.168 12.1338636,8.3808 13.0876136,7.9808 C14.0445455,7.584 14.6347727,6.6928 14.6347727,5.6528 L14.6347727,2.4184 C14.6347727,2.1432 14.8590909,1.9216 15.1319318,1.9216 L19.2309091,1.9216 C19.5045455,1.9216 19.7280682,2.1432 19.7280682,2.4184 L19.7280682,5.6528 C19.7280682,6.6928 20.3214773,7.584 21.2752273,7.9808 C22.2289773,8.3808 23.2765909,8.1712 24.0068182,7.4368 L26.2810227,5.1496 C26.4735227,4.956 26.7909091,4.956 26.9834091,5.1496 L29.8788636,8.0648 C30.0753409,8.2584 30.0753409,8.5776 29.8788636,8.7712 L27.6078409,11.056 C26.8776136,11.7896 26.6660227,12.8432 27.06375,13.8056 C27.4590909,14.7648 28.3476136,15.3616 29.3793182,15.3616 L32.5953409,15.3616 C32.8681818,15.3584 33.0925,15.584 33.0925,15.8584 L33.0925,19.9808 Z" id="Fill-1" fill="#454445" mask="url(#mask-2)"></path>
                    </g>
                    <path d="M17.1834091,12.1584 C14.0230682,12.1584 11.4529545,14.7432 11.4529545,17.9216 C11.4529545,21.096 14.0230682,23.6808 17.1834091,23.6808 C20.3397727,23.6808 22.9098864,21.096 22.9098864,17.9216 C22.9098864,14.7432 20.3397727,12.1584 17.1834091,12.1584 Z M17.1834091,22.3992 C14.7254545,22.3992 12.7272727,20.3896 12.7272727,17.9216 C12.7272727,15.4496 14.7254545,13.44 17.1834091,13.44 C19.6381818,13.44 21.6355682,15.4496 21.6355682,17.9216 C21.6355682,20.3896 19.6381818,22.3992 17.1834091,22.3992 Z" id="Fill-4" fill="#454445"></path>
                </g>
            </g>
        </g>
    </g>
</svg>